<svg width="80" height="80" viewBox="0 0 80 80" fill="none" xmlns="http://www.w3.org/2000/svg">
<path d="M70.2733 28.5434L51.4567 9.72503C45.155 3.42336 34.845 3.42336 28.5433 9.72503L9.72668 28.5434C3.42501 34.845 3.42501 45.155 9.72668 51.4567L28.545 70.275C34.8467 76.5767 45.1567 76.5767 51.4583 70.275L70.2767 51.4567C76.575 45.155 76.575 34.845 70.2733 28.5434ZM40 51.6667C33.5567 51.6667 28.3333 46.4434 28.3333 40C28.3333 33.5567 33.5567 28.3334 40 28.3334C46.4433 28.3334 51.6667 33.5567 51.6667 40C51.6667 46.4434 46.4433 51.6667 40 51.6667Z" fill="#2f2f3a"/>
</svg>
