<svg width="100" height="96" viewBox="0 0 100 96" fill="none" xmlns="http://www.w3.org/2000/svg">
<path d="M66.695 69.9833L33.3617 70.0149C26.0283 70.0216 20.0233 64.0283 20.015 56.6949L19.9833 23.3616C19.9767 16.0283 25.97 10.0233 33.3033 10.0149L66.6367 9.98328C73.97 9.97662 79.975 15.9699 79.9833 23.3033L80.015 56.6366C80.0233 63.9716 74.0283 69.9766 66.695 69.9833Z" fill="#2f2f3a"/>
<path d="M66.695 69.9833L33.3617 70.0149C26.0283 70.0216 20.0233 64.0283 20.015 56.6949L19.9833 23.3616C19.9767 16.0283 25.97 10.0233 33.3033 10.0149L66.6367 9.98328C73.97 9.97662 79.975 15.9699 79.9833 23.3033L80.015 56.6366C80.0233 63.9716 74.0283 69.9766 66.695 69.9833Z" fill="#2f2f3a"/>
<path d="M50 51.6667C43.5683 51.6667 38.3333 46.4334 38.3333 40C38.3333 33.5667 43.5683 28.3334 50 28.3334C56.4316 28.3334 61.6666 33.5667 61.6666 40C61.6666 46.4334 56.4316 51.6667 50 51.6667ZM50 31.6667C45.405 31.6667 41.6666 35.405 41.6666 40C41.6666 44.595 45.405 48.3334 50 48.3334C54.595 48.3334 58.3333 44.595 58.3333 40C58.3333 35.405 54.595 31.6667 50 31.6667Z" fill="white"/>
<path d="M62.5 30C63.8807 30 65 28.8807 65 27.5C65 26.1193 63.8807 25 62.5 25C61.1193 25 60 26.1193 60 27.5C60 28.8807 61.1193 30 62.5 30Z" fill="white"/>
<path d="M60 61.6667H40C33.5683 61.6667 28.3333 56.4334 28.3333 50V30C28.3333 23.5667 33.5683 18.3334 40 18.3334H60C66.4316 18.3334 71.6666 23.5667 71.6666 30V50C71.6666 56.4334 66.4316 61.6667 60 61.6667ZM40 21.6667C35.405 21.6667 31.6666 25.405 31.6666 30V50C31.6666 54.595 35.405 58.3334 40 58.3334H60C64.595 58.3334 68.3333 54.595 68.3333 50V30C68.3333 25.405 64.595 21.6667 60 21.6667H40Z" fill="white"/>
<path d="M29.5171 76.2155C30.1437 76.2155 30.6804 76.3721 31.1271 76.6855C31.5737 76.9988 31.9104 77.4221 32.1371 77.9555C32.3637 78.4821 32.4771 79.0688 32.4771 79.7155C32.4771 80.3688 32.3637 80.9621 32.1371 81.4955C31.9104 82.0221 31.5737 82.4421 31.1271 82.7555C30.6804 83.0621 30.1437 83.2155 29.5171 83.2155H27.0571C26.9237 83.2155 26.8104 83.1688 26.7171 83.0755C26.6237 82.9821 26.5771 82.8688 26.5771 82.7355V76.6955C26.5771 76.5621 26.6237 76.4488 26.7171 76.3555C26.8104 76.2621 26.9237 76.2155 27.0571 76.2155H29.5171ZM29.4171 82.2955C30.0971 82.2955 30.6071 82.0555 30.9471 81.5755C31.2871 81.0888 31.4571 80.4688 31.4571 79.7155C31.4571 78.9688 31.2837 78.3521 30.9371 77.8655C30.5971 77.3788 30.0904 77.1355 29.4171 77.1355H27.5671V82.2955H29.4171ZM38.3032 80.3955C38.2965 80.5155 38.2465 80.6188 38.1532 80.7055C38.0598 80.7855 37.9498 80.8255 37.8232 80.8255H34.3032C34.3498 81.3121 34.5332 81.7021 34.8532 81.9955C35.1798 82.2888 35.5765 82.4355 36.0432 82.4355C36.3632 82.4355 36.6232 82.3888 36.8232 82.2955C37.0232 82.2021 37.1998 82.0821 37.3532 81.9355C37.4532 81.8755 37.5498 81.8455 37.6432 81.8455C37.7565 81.8455 37.8498 81.8855 37.9232 81.9655C38.0032 82.0455 38.0432 82.1388 38.0432 82.2455C38.0432 82.3855 37.9765 82.5121 37.8432 82.6255C37.6498 82.8188 37.3932 82.9821 37.0732 83.1155C36.7532 83.2488 36.4265 83.3155 36.0932 83.3155C35.5532 83.3155 35.0765 83.2021 34.6632 82.9755C34.2565 82.7488 33.9398 82.4321 33.7132 82.0255C33.4932 81.6188 33.3832 81.1588 33.3832 80.6455C33.3832 80.0855 33.4965 79.5955 33.7232 79.1755C33.9565 78.7488 34.2598 78.4221 34.6332 78.1955C35.0132 77.9688 35.4198 77.8555 35.8532 77.8555C36.2798 77.8555 36.6798 77.9655 37.0532 78.1855C37.4265 78.4055 37.7265 78.7088 37.9532 79.0955C38.1798 79.4821 38.2965 79.9155 38.3032 80.3955ZM35.8532 78.7355C35.4798 78.7355 35.1565 78.8421 34.8832 79.0555C34.6098 79.2621 34.4298 79.5855 34.3432 80.0255H37.2932V79.9455C37.2598 79.5921 37.0998 79.3021 36.8132 79.0755C36.5332 78.8488 36.2132 78.7355 35.8532 78.7355ZM43.3575 77.9255C43.4841 77.9255 43.5908 77.9688 43.6775 78.0555C43.7641 78.1355 43.8075 78.2321 43.8075 78.3455C43.8075 78.4055 43.7841 78.4888 43.7375 78.5955L41.8375 82.9155C41.7975 83.0021 41.7408 83.0721 41.6675 83.1255C41.5941 83.1788 41.5141 83.2088 41.4275 83.2155C41.3208 83.2288 41.2208 83.2088 41.1275 83.1555C41.0408 83.1021 40.9741 83.0221 40.9275 82.9155L39.0275 78.5955C38.9941 78.4955 38.9775 78.4121 38.9775 78.3455C38.9775 78.2388 39.0208 78.1421 39.1075 78.0555C39.1941 77.9688 39.3075 77.9255 39.4475 77.9255C39.5475 77.9255 39.6375 77.9521 39.7175 78.0055C39.7975 78.0521 39.8608 78.1255 39.9075 78.2255L41.4175 81.7355L42.9275 78.2255C43.0208 78.0255 43.1641 77.9255 43.3575 77.9255ZM49.3871 80.3955C49.3805 80.5155 49.3305 80.6188 49.2371 80.7055C49.1438 80.7855 49.0338 80.8255 48.9071 80.8255H45.3871C45.4338 81.3121 45.6171 81.7021 45.9371 81.9955C46.2638 82.2888 46.6605 82.4355 47.1271 82.4355C47.4471 82.4355 47.7071 82.3888 47.9071 82.2955C48.1071 82.2021 48.2838 82.0821 48.4371 81.9355C48.5371 81.8755 48.6338 81.8455 48.7271 81.8455C48.8405 81.8455 48.9338 81.8855 49.0071 81.9655C49.0871 82.0455 49.1271 82.1388 49.1271 82.2455C49.1271 82.3855 49.0605 82.5121 48.9271 82.6255C48.7338 82.8188 48.4771 82.9821 48.1571 83.1155C47.8371 83.2488 47.5105 83.3155 47.1771 83.3155C46.6371 83.3155 46.1605 83.2021 45.7471 82.9755C45.3405 82.7488 45.0238 82.4321 44.7971 82.0255C44.5771 81.6188 44.4671 81.1588 44.4671 80.6455C44.4671 80.0855 44.5805 79.5955 44.8071 79.1755C45.0405 78.7488 45.3438 78.4221 45.7171 78.1955C46.0971 77.9688 46.5038 77.8555 46.9371 77.8555C47.3638 77.8555 47.7638 77.9655 48.1371 78.1855C48.5105 78.4055 48.8105 78.7088 49.0371 79.0955C49.2638 79.4821 49.3805 79.9155 49.3871 80.3955ZM46.9371 78.7355C46.5638 78.7355 46.2405 78.8421 45.9671 79.0555C45.6938 79.2621 45.5138 79.5855 45.4271 80.0255H48.3771V79.9455C48.3438 79.5921 48.1838 79.3021 47.8971 79.0755C47.6171 78.8488 47.2971 78.7355 46.9371 78.7355ZM51.5203 82.7355C51.5203 82.8688 51.4736 82.9821 51.3803 83.0755C51.2869 83.1688 51.1736 83.2155 51.0403 83.2155C50.9069 83.2155 50.7936 83.1688 50.7003 83.0755C50.6136 82.9821 50.5703 82.8688 50.5703 82.7355V76.2955C50.5703 76.1621 50.6169 76.0488 50.7103 75.9555C50.8036 75.8621 50.9169 75.8155 51.0503 75.8155C51.1836 75.8155 51.2936 75.8621 51.3803 75.9555C51.4736 76.0488 51.5203 76.1621 51.5203 76.2955V82.7355ZM57.8819 80.5955C57.8819 81.1155 57.7652 81.5821 57.5319 81.9955C57.2986 82.4088 56.9786 82.7321 56.5719 82.9655C56.1719 83.1988 55.7286 83.3155 55.2419 83.3155C54.7552 83.3155 54.3086 83.1988 53.9019 82.9655C53.5019 82.7321 53.1852 82.4088 52.9519 81.9955C52.7186 81.5821 52.6019 81.1155 52.6019 80.5955C52.6019 80.0755 52.7186 79.6055 52.9519 79.1855C53.1852 78.7655 53.5019 78.4388 53.9019 78.2055C54.3086 77.9721 54.7552 77.8555 55.2419 77.8555C55.7286 77.8555 56.1719 77.9721 56.5719 78.2055C56.9786 78.4388 57.2986 78.7655 57.5319 79.1855C57.7652 79.6055 57.8819 80.0755 57.8819 80.5955ZM56.9319 80.5955C56.9319 80.2355 56.8552 79.9155 56.7019 79.6355C56.5552 79.3488 56.3519 79.1288 56.0919 78.9755C55.8386 78.8155 55.5552 78.7355 55.2419 78.7355C54.9286 78.7355 54.6419 78.8155 54.3819 78.9755C54.1286 79.1288 53.9252 79.3488 53.7719 79.6355C53.6252 79.9155 53.5519 80.2355 53.5519 80.5955C53.5519 80.9488 53.6252 81.2655 53.7719 81.5455C53.9252 81.8255 54.1286 82.0455 54.3819 82.2055C54.6419 82.3588 54.9286 82.4355 55.2419 82.4355C55.5552 82.4355 55.8386 82.3588 56.0919 82.2055C56.3519 82.0455 56.5552 81.8255 56.7019 81.5455C56.8552 81.2655 56.9319 80.9488 56.9319 80.5955ZM61.6164 77.8855C62.0697 77.8855 62.4797 78.0021 62.8464 78.2355C63.213 78.4621 63.4997 78.7821 63.7064 79.1955C63.9197 79.6088 64.0264 80.0755 64.0264 80.5955C64.0264 81.1155 63.9197 81.5821 63.7064 81.9955C63.4997 82.4021 63.213 82.7221 62.8464 82.9555C62.4797 83.1888 62.0764 83.3055 61.6364 83.3055C61.2897 83.3055 60.9664 83.2288 60.6664 83.0755C60.3664 82.9221 60.123 82.7355 59.9364 82.5155V84.7355C59.9364 84.8688 59.8897 84.9821 59.7964 85.0755C59.7097 85.1688 59.5964 85.2155 59.4564 85.2155C59.323 85.2155 59.2097 85.1688 59.1164 85.0755C59.0297 84.9888 58.9864 84.8755 58.9864 84.7355V78.4455C58.9864 78.3055 59.0297 78.1888 59.1164 78.0955C59.203 78.0021 59.3164 77.9555 59.4564 77.9555C59.5964 77.9555 59.7097 78.0021 59.7964 78.0955C59.8897 78.1888 59.9364 78.3055 59.9364 78.4455V78.7355C60.0964 78.5021 60.3297 78.3021 60.6364 78.1355C60.943 77.9688 61.2697 77.8855 61.6164 77.8855ZM61.5064 82.4255C61.813 82.4255 62.0897 82.3455 62.3364 82.1855C62.583 82.0255 62.773 81.8088 62.9064 81.5355C63.0464 81.2555 63.1164 80.9421 63.1164 80.5955C63.1164 80.2488 63.0464 79.9388 62.9064 79.6655C62.773 79.3855 62.583 79.1655 62.3364 79.0055C62.0897 78.8455 61.813 78.7655 61.5064 78.7655C61.193 78.7655 60.913 78.8455 60.6664 79.0055C60.4197 79.1588 60.2264 79.3755 60.0864 79.6555C59.953 79.9355 59.8864 80.2488 59.8864 80.5955C59.8864 80.9421 59.953 81.2555 60.0864 81.5355C60.2264 81.8155 60.4197 82.0355 60.6664 82.1955C60.913 82.3488 61.193 82.4255 61.5064 82.4255ZM69.7289 80.3955C69.7223 80.5155 69.6723 80.6188 69.5789 80.7055C69.4856 80.7855 69.3756 80.8255 69.2489 80.8255H65.7289C65.7756 81.3121 65.9589 81.7021 66.2789 81.9955C66.6056 82.2888 67.0023 82.4355 67.4689 82.4355C67.7889 82.4355 68.0489 82.3888 68.2489 82.2955C68.4489 82.2021 68.6256 82.0821 68.7789 81.9355C68.8789 81.8755 68.9756 81.8455 69.0689 81.8455C69.1823 81.8455 69.2756 81.8855 69.3489 81.9655C69.4289 82.0455 69.4689 82.1388 69.4689 82.2455C69.4689 82.3855 69.4023 82.5121 69.2689 82.6255C69.0756 82.8188 68.8189 82.9821 68.4989 83.1155C68.1789 83.2488 67.8523 83.3155 67.5189 83.3155C66.9789 83.3155 66.5023 83.2021 66.0889 82.9755C65.6823 82.7488 65.3656 82.4321 65.1389 82.0255C64.9189 81.6188 64.8089 81.1588 64.8089 80.6455C64.8089 80.0855 64.9223 79.5955 65.1489 79.1755C65.3823 78.7488 65.6856 78.4221 66.0589 78.1955C66.4389 77.9688 66.8456 77.8555 67.2789 77.8555C67.7056 77.8555 68.1056 77.9655 68.4789 78.1855C68.8523 78.4055 69.1523 78.7088 69.3789 79.0955C69.6056 79.4821 69.7223 79.9155 69.7289 80.3955ZM67.2789 78.7355C66.9056 78.7355 66.5823 78.8421 66.3089 79.0555C66.0356 79.2621 65.8556 79.5855 65.7689 80.0255H68.7189V79.9455C68.6856 79.5921 68.5256 79.3021 68.2389 79.0755C67.9589 78.8488 67.6389 78.7355 67.2789 78.7355ZM73.4421 77.8555C73.6154 77.8555 73.7654 77.9021 73.8921 77.9955C74.0187 78.0821 74.0821 78.1921 74.0821 78.3255C74.0821 78.4855 74.0387 78.6088 73.9521 78.6955C73.8721 78.7755 73.7721 78.8155 73.6521 78.8155C73.5921 78.8155 73.5021 78.7955 73.3821 78.7555C73.2421 78.7088 73.1321 78.6855 73.0521 78.6855C72.8454 78.6855 72.6421 78.7588 72.4421 78.9055C72.2487 79.0455 72.0887 79.2421 71.9621 79.4955C71.8421 79.7421 71.7821 80.0188 71.7821 80.3255V82.7355C71.7821 82.8688 71.7354 82.9821 71.6421 83.0755C71.5554 83.1688 71.4421 83.2155 71.3021 83.2155C71.1621 83.2155 71.0487 83.1721 70.9621 83.0855C70.8754 82.9921 70.8321 82.8755 70.8321 82.7355V78.4555C70.8321 78.3221 70.8754 78.2088 70.9621 78.1155C71.0554 78.0221 71.1687 77.9755 71.3021 77.9755C71.4421 77.9755 71.5554 78.0221 71.6421 78.1155C71.7354 78.2088 71.7821 78.3221 71.7821 78.4555V78.9655C71.9287 78.6388 72.1487 78.3755 72.4421 78.1755C72.7354 77.9688 73.0687 77.8621 73.4421 77.8555Z" fill="#2f2f3a"/>
</svg>
