<svg width="80" height="80" viewBox="0 0 80 80" fill="none" xmlns="http://www.w3.org/2000/svg">
<path d="M56.695 69.9833L23.3617 70.0149C16.0283 70.0216 10.0233 64.0283 10.015 56.6949L9.98334 23.3616C9.97668 16.0283 15.97 10.0233 23.3033 10.0149L56.6367 9.98328C63.97 9.97662 69.975 15.9699 69.9833 23.3033L70.015 56.6366C70.0233 63.9716 64.0283 69.9766 56.695 69.9833Z" fill="#2f2f3a"/>
<path d="M56.695 69.9833L23.3617 70.0149C16.0283 70.0216 10.0233 64.0283 10.015 56.6949L9.98334 23.3616C9.97668 16.0283 15.97 10.0233 23.3033 10.0149L56.6367 9.98328C63.97 9.97662 69.975 15.9699 69.9833 23.3033L70.015 56.6366C70.0233 63.9716 64.0283 69.9766 56.695 69.9833Z" fill="#2f2f3a"/>
<path d="M40 51.6667C33.5683 51.6667 28.3333 46.4334 28.3333 40C28.3333 33.5667 33.5683 28.3334 40 28.3334C46.4316 28.3334 51.6666 33.5667 51.6666 40C51.6666 46.4334 46.4316 51.6667 40 51.6667ZM40 31.6667C35.405 31.6667 31.6666 35.405 31.6666 40C31.6666 44.595 35.405 48.3334 40 48.3334C44.595 48.3334 48.3333 44.595 48.3333 40C48.3333 35.405 44.595 31.6667 40 31.6667Z" fill="white"/>
<path d="M52.5 30C53.8807 30 55 28.8807 55 27.5C55 26.1193 53.8807 25 52.5 25C51.1193 25 50 26.1193 50 27.5C50 28.8807 51.1193 30 52.5 30Z" fill="white"/>
<path d="M50 61.6667H30C23.5683 61.6667 18.3333 56.4334 18.3333 50V30C18.3333 23.5667 23.5683 18.3334 30 18.3334H50C56.4316 18.3334 61.6666 23.5667 61.6666 30V50C61.6666 56.4334 56.4316 61.6667 50 61.6667ZM30 21.6667C25.405 21.6667 21.6666 25.405 21.6666 30V50C21.6666 54.595 25.405 58.3334 30 58.3334H50C54.595 58.3334 58.3333 54.595 58.3333 50V30C58.3333 25.405 54.595 21.6667 50 21.6667H30Z" fill="white"/>
</svg>
