<svg width="171" height="171" viewBox="0 0 171 171" fill="none" xmlns="http://www.w3.org/2000/svg">
<path d="M138.937 32.0625C133.188 37.5666 126.273 41.895 118.61 44.6524C110.616 46.0631 88.4925 35.8031 77.5912 46.2769C75.7744 48.0938 73.53 49.9106 71.1787 51.7275C66.0487 49.4831 58.14 46.0631 52.3687 42.75C46.5975 39.4369 32.0625 32.0625 32.0625 32.0625L0 69.4688C0 69.4688 7.90875 80.1562 12.825 87.21C16.0312 91.9125 19.9856 99.0731 22.5506 103.882L18.9169 108.158C18.297 109.387 17.9229 110.829 17.9229 112.358C17.9229 114.869 18.9062 117.156 20.52 118.845C21.9949 119.946 23.8438 120.608 25.8637 120.608C27.8837 120.608 29.7326 119.946 31.2289 118.824C30.2242 119.989 29.6364 121.485 29.6364 123.12C29.6364 125.183 30.5769 127.021 32.0518 128.239C33.5908 129.148 35.4397 129.682 37.4062 129.682C39.3727 129.682 41.2217 129.148 42.8034 128.218C41.6064 129.703 40.9117 131.563 40.9117 133.594C40.9117 135.624 41.6064 137.484 42.7714 138.959C43.8294 139.333 45.0585 139.557 46.341 139.557C48.5533 139.557 50.6053 138.884 52.3046 137.74C51.8451 138.756 51.6099 139.91 51.6099 141.128C51.6099 143.629 52.6359 145.884 54.3032 147.488C55.6926 148.118 57.3277 148.481 59.0377 148.481C61.4531 148.481 63.7082 147.755 65.5678 146.504L71.0826 141.513C76.1271 146.536 83.0846 149.646 90.7689 149.646C90.9827 149.646 91.2071 149.646 91.4209 149.636C96.7005 149.187 101.125 145.831 103.113 141.182C104.673 141.78 106.447 142.187 108.328 142.187C110.851 142.187 113.191 141.46 115.168 140.209C121.421 136.073 119.924 132.867 119.924 132.867C121.26 133.455 122.81 133.797 124.445 133.797C127.876 133.797 130.965 132.279 133.059 129.885C134.94 127.951 136.084 125.322 136.084 122.436C136.084 120.405 135.517 118.514 134.534 116.9C134.62 116.953 134.695 116.953 134.759 116.953C139.258 116.953 143.17 114.474 145.211 110.819C145.938 108.991 146.333 106.939 146.333 104.802C146.333 101.146 145.158 97.7586 143.17 95.0012L143.202 95.0546C151.966 93.3446 151.645 88.9627 155.92 82.5503C160.024 77.2706 165.026 72.9101 170.743 69.6397L138.937 32.0625ZM138.403 107.516C133.701 112.219 130.067 110.188 122.051 104.096C114.036 98.0044 98.1112 86.5688 98.1112 86.5688C98.7632 89.8284 100.27 92.6606 102.397 94.9157C105.806 98.7525 115.959 107.516 120.769 112.005C123.761 114.784 131.456 120.341 126.967 124.616C122.479 128.891 118.952 124.616 111.577 118.631C104.203 112.646 87.7444 97.8975 87.7444 97.8975C87.7337 98.0899 87.723 98.3036 87.723 98.5281C87.723 101.285 88.8345 103.776 90.63 105.592C92.4469 107.73 102.6 117.562 106.875 122.051C111.15 126.54 114.891 129.212 111.257 132.739C107.623 136.266 100.249 130.708 96.1875 126.54C89.8819 120.448 77.3775 109.119 77.3775 109.119C77.3668 109.29 77.3668 109.483 77.3668 109.686C77.3668 112.721 78.4142 115.5 80.1776 117.701C83.2556 121.741 89.2406 126.978 92.8744 131.039C96.5081 135.101 98.6456 138.521 92.8744 141.727C87.1031 144.933 78.5531 137.024 74.8125 133.177C74.8125 133.166 74.8125 133.166 74.8125 133.156C74.8125 132.055 74.4064 131.05 73.7437 130.281C72.0444 128.71 69.7466 127.737 67.2351 127.737C66.1236 127.737 65.0548 127.929 64.0609 128.271C65.4289 127.053 66.2411 125.343 66.2411 123.441C66.2411 121.538 65.4289 119.828 64.125 118.631C62.7784 117.616 61.0897 117.007 59.2622 117.007C57.4346 117.007 55.7353 117.616 54.378 118.642C55.6284 117.434 56.3979 115.778 56.3979 113.929C56.3979 111.652 55.233 109.654 53.4696 108.489C51.8344 107.452 49.8786 106.854 47.7838 106.854C45.1761 106.854 42.7821 107.794 40.9224 109.344C41.9377 108.125 42.5362 106.565 42.5362 104.855C42.5362 102.771 41.6278 100.901 40.1957 99.6075C38.2933 97.8441 35.739 96.7646 32.9389 96.7646C30.9617 96.7646 29.1127 97.299 27.5203 98.2395L20.4131 86.2374C15.4969 78.4356 9.72562 70.3131 9.72562 70.3131L34.0931 40.7087C34.0931 40.7087 42.75 46.0524 49.9106 50.1137C53.4375 52.1443 59.5294 54.8162 64.125 56.9537C56.8575 62.4043 50.7656 67.6412 52.5825 71.2749C55.7567 73.5621 59.7217 74.9408 64.0074 74.9408C68.0259 74.9408 71.7666 73.7331 74.8873 71.6597C78.8737 68.9771 83.8648 67.3526 89.2406 67.3526C92.9492 67.3526 96.4761 68.1221 99.6716 69.5222C105.592 73.5193 116.494 83.3518 126.433 89.5506C138.937 98.6349 141.396 104.513 138.403 107.506V107.516Z" fill="white"/>
</svg>
