<svg width="171" height="171" viewBox="0 0 171 171" fill="none" xmlns="http://www.w3.org/2000/svg">
<path d="M167.17 31.7762C164.7 29.3059 161.411 27.9451 157.91 27.9451C154.409 27.9451 151.121 29.3055 148.65 31.7758L139.793 40.6329L131.741 48.6842C131.741 48.6842 131.741 48.6842 131.741 48.6846C131.741 48.685 131.741 48.685 131.741 48.685L74.191 106.236C74.1112 106.315 74.0384 106.4 73.97 106.486C73.9526 106.509 73.9366 106.532 73.9196 106.555C73.8679 106.624 73.8197 106.695 73.7749 106.768C73.7673 106.78 73.7579 106.792 73.7506 106.804L56.9838 135.281C55.4378 137.142 55.5365 139.919 57.2814 141.665C58.1776 142.561 59.3691 143.054 60.6365 143.054C61.7559 143.054 62.8164 142.669 63.6663 141.961L92.1421 125.195C92.1557 125.187 92.1675 125.177 92.1808 125.169C92.2522 125.125 92.3216 125.078 92.39 125.027C92.4135 125.01 92.4374 124.994 92.4602 124.976C92.5467 124.907 92.631 124.835 92.7107 124.755L150.26 67.2059H150.26C150.261 67.2055 150.261 67.2055 150.261 67.2051L167.17 50.2959C172.276 45.1902 172.276 36.8823 167.17 31.7762ZM148.248 61.1664L137.78 50.6983L141.806 46.6724L152.274 57.1401L148.248 61.1664ZM90.6982 118.716L80.2305 108.248L133.754 54.7245L144.222 65.1922L90.6982 118.716ZM74.2589 129.118L69.8288 124.688L76.7918 112.862L86.0847 122.155L74.2589 129.118ZM63.4856 135.461L66.8449 129.755L69.1911 132.102L63.4856 135.461ZM163.144 46.2701L156.3 53.1143L145.832 42.6466L152.676 35.8024C154.072 34.4074 155.93 33.6392 157.911 33.6392C159.891 33.6392 161.749 34.4074 163.144 35.8024C164.54 37.1973 165.307 39.0562 165.307 41.0364C165.307 43.0167 164.54 44.8751 163.144 46.2701Z" fill="#EDF2FA"/>
<path d="M41.4365 135.273C39.7622 135.273 38.3999 136.635 38.3999 138.31C38.3999 139.984 39.7622 141.346 41.4365 141.346C43.1109 141.346 44.4732 139.984 44.4732 138.31C44.4732 136.635 43.1109 135.273 41.4365 135.273Z" fill="#EDF2FA"/>
<path d="M22.2366 135.273C20.5623 135.273 19.2 136.635 19.2 138.31C19.2 139.984 20.5623 141.346 22.2366 141.346C23.9109 141.346 25.2732 139.984 25.2732 138.31C25.2732 136.635 23.9109 135.273 22.2366 135.273Z" fill="#EDF2FA"/>
<path d="M3.03665 135.273C1.36232 135.273 0 136.635 0 138.31C0 139.984 1.36232 141.346 3.03665 141.346C4.71098 141.346 6.07329 139.984 6.07329 138.31C6.07329 136.635 4.71098 135.273 3.03665 135.273Z" fill="#EDF2FA"/>
</svg>
