<svg width="100" height="100" viewBox="0 0 100 100" fill="none" xmlns="http://www.w3.org/2000/svg">
<rect y="1" width="100" height="98" rx="20" fill="#EDF2FA"/>
<path d="M41.0417 35.0833C39.5 34.4583 37.8333 34.2083 36.125 34.25C35.0417 34.25 34.0833 34.25 33.2917 34.2917C32.4583 34.25 31.875 34.2917 31.5833 34.3333V48.3333C32.1667 48.375 32.7083 48.4167 33.2083 48.4167H35.4167C37.0417 48.4167 38.6667 48.1667 40.2083 47.6667C41.5417 47.2917 42.7083 46.5 43.625 45.4583C44.5 44.4167 44.9167 43 44.9167 41.1667C44.9583 39.875 44.625 38.5833 43.9583 37.4583C43.25 36.375 42.25 35.5417 41.0417 35.0833ZM82.2917 1.25H17.7083C7.91667 1.25 0 9.16667 0 18.9583V81.0375C0 90.8292 7.91667 98.7458 17.7083 98.7458H82.2917C92.0833 98.7458 100 90.8292 100 81.0375V18.9583C100 9.16667 92.0833 1.25 82.2917 1.25ZM51.4958 49.7917C49.8333 52.125 47.5 53.875 44.7917 54.875C41.9583 55.9167 38.8333 56.2917 35.4167 56.2917C34.4167 56.2917 33.75 56.2917 33.3333 56.25C32.9167 56.2083 32.3333 56.2083 31.5417 56.2083V69.5792C31.5833 69.8708 31.375 70.125 31.0833 70.1667H23C22.6667 70.1667 22.5 69.9958 22.5 69.6208V26.75C22.5 26.4583 22.625 26.2917 22.9167 26.2917C23.625 26.2917 24.2917 26.2917 25.25 26.25C26.25 26.2083 27.2917 26.2083 28.4167 26.1667C29.5417 26.125 30.75 26.125 32.0417 26.0833C33.3333 26.0417 34.5833 26.0417 35.8333 26.0417C39.25 26.0417 42.0833 26.4583 44.4167 27.3333C46.5 28.0417 48.4167 29.2083 50 30.75C51.3333 32.0833 52.375 33.7083 53.0417 35.5C53.6625 37.25 53.9958 39.0417 53.9958 40.9167C54 44.5 53.1667 47.4583 51.4958 49.7917ZM81.0417 66C79.875 67.6667 78.2458 68.9542 76.375 69.7125C74.3333 70.5833 71.8333 71.0375 68.8292 71.0375C66.9167 71.0375 65.0375 70.875 63.1667 70.5C61.7083 70.2458 60.25 69.7917 58.9167 69.1667C58.625 69.0042 58.4125 68.7125 58.4542 68.3792V61.1292C58.4542 61.0083 58.5 60.8375 58.625 60.7542C58.7458 60.6708 58.875 60.7125 59 60.7958C60.625 61.7542 62.3333 62.425 64.1667 62.8375C65.7458 63.2542 67.4125 63.4625 69.0833 63.4625C70.6667 63.4625 71.7917 63.25 72.5417 62.875C73.2083 62.5833 73.6667 61.875 73.6667 61.125C73.6667 60.5375 73.3333 60 72.6667 59.4583C72 58.9208 70.6292 58.2958 68.5875 57.4958C66.4625 56.7458 64.5083 55.7458 62.6708 54.5C61.3792 53.5792 60.3 52.375 59.5 50.9583C58.8375 49.625 58.5042 48.1667 58.5458 46.7042C58.5458 44.9125 59.0458 43.2042 59.9667 41.6625C61.0083 39.9958 62.5458 38.6625 64.3375 37.8292C66.2917 36.8333 68.75 36.375 71.7083 36.375C73.4167 36.375 75.1667 36.5 76.875 36.75C78.125 36.9167 79.3333 37.25 80.4583 37.7083C80.6208 37.75 80.7917 37.9167 80.875 38.0833C80.9167 38.25 80.9583 38.4167 80.9583 38.5833V45.375C80.9583 45.5417 80.875 45.7083 80.75 45.7917C80.375 45.875 80.1667 45.875 80 45.7917C78.75 45.125 77.4167 44.6667 76 44.375C74.4583 44.0417 72.9167 43.8333 71.3333 43.8333C70.5 43.7917 69.625 43.9167 68.8292 44.125C68.2917 44.25 67.8292 44.5417 67.5375 44.9583C67.3292 45.2917 67.2042 45.7083 67.2042 46.0833C67.2042 46.4583 67.3708 46.8333 67.625 47.1667C68 47.625 68.4958 48 69.0417 48.2917C69.9958 48.7917 71 49.25 71.9958 49.6667C74.25 50.4167 76.4167 51.4583 78.4167 52.7083C79.7917 53.5792 80.9167 54.75 81.7042 56.1667C82.3708 57.4917 82.7042 58.9583 82.6625 60.4542C82.7083 62.4167 82.125 64.3708 81.0417 66Z" fill="#2F2F3A"/>
</svg>
