<svg width="100" height="100" viewBox="0 0 100 100" fill="none" xmlns="http://www.w3.org/2000/svg">
<path d="M82.292 100H17.708C7.916 100 0 91.881 0 81.838V18.1621C0 8.11897 7.916 0 17.708 0H82.292C92.084 0 100 8.11897 100 18.1621V81.838C100 91.881 92.084 100 82.292 100Z" fill="#2F2F3A"/>
<path d="M80.7081 95.7252H19.292C10.96 95.7252 4.16803 88.7591 4.16803 80.2134V19.7867C4.16803 11.2411 10.96 4.2749 19.292 4.2749H80.6681C89.0441 4.2749 95.7921 11.2411 95.7921 19.7867V80.1724C95.8321 88.7591 89.0401 95.7252 80.7081 95.7252Z" fill="#2F2F3A"/>
<path d="M39.54 46.7939L51.208 69.7846C51.416 70.1251 51.292 70.4697 50.956 70.4697H43.704C43.244 70.4697 43.036 70.3426 42.828 69.9159C40.16 64.2749 37.452 58.6339 34.66 52.5662H34.576C32.076 58.2934 29.324 64.32 26.66 69.961C26.452 70.3015 26.244 70.4328 25.908 70.4328H19.04C18.624 70.4328 18.58 70.0923 18.792 69.8339L30.208 47.5241L19.168 24.9601C18.916 24.6196 19.168 24.3611 19.416 24.3611H26.584C27 24.3611 27.168 24.4472 27.332 24.8329C29.956 30.4739 32.624 36.2872 35.124 41.9693H35.208C37.624 36.3283 40.292 30.4739 42.876 24.8739C43.084 24.5334 43.208 24.3201 43.628 24.3201H50.336C50.668 24.3201 50.796 24.5785 50.588 24.919L39.54 46.7939ZM53.252 53.76C53.252 43.8031 59.712 36.0247 69.96 36.0247C70.836 36.0247 71.292 36.0247 72.128 36.1108V24.7878C72.128 24.5293 72.336 24.3611 72.544 24.3611H79.128C79.46 24.3611 79.544 24.4883 79.544 24.7016V63.9344C79.544 65.0872 79.544 66.5395 79.752 68.1231C79.752 68.3815 79.668 68.4636 79.42 68.5949C75.92 70.3056 72.252 71.0728 68.752 71.0728C59.708 71.1098 53.248 65.3867 53.252 53.76ZM72.124 42.8226C71.54 42.5641 70.708 42.3959 69.708 42.3959C64.456 42.3959 60.792 46.5395 60.792 53.4236C60.792 61.2882 64.544 64.4513 69.252 64.4513C70.252 64.4513 71.336 64.3241 72.128 63.9795V42.8226H72.124Z" fill="#EDF2FA"/>
</svg>
