<svg width="171" height="171" viewBox="0 0 171 171" fill="none" xmlns="http://www.w3.org/2000/svg">
<path d="M96.957 114C95.3839 114 94.1212 115.277 94.1212 116.85C94.1212 118.423 95.4123 119.7 96.9854 119.7C98.5615 119.7 99.8353 118.423 99.8353 116.85C99.8353 115.277 98.5615 114 96.9854 114H96.957Z" fill="#EDF2FA"/>
<path d="M105.45 79.7999C103.891 79.7999 102.64 81.054 102.62 82.6127C102.6 84.1745 103.856 85.46 105.415 85.4997C106.732 85.5338 108.3 86.0555 108.3 88.3496V91.1995C108.3 92.2909 108.434 100.328 112.25 105.216C108.354 108.938 108.3 113.751 108.3 114V122.55C108.3 124.841 106.735 125.365 105.421 125.399C103.859 125.414 102.6 126.685 102.6 128.249C102.6 129.822 103.876 131.099 105.45 131.099C108.887 131.099 114 128.822 114 122.549V113.999C114 113.959 114.048 110.038 118.124 108C119.09 107.515 119.7 106.529 119.7 105.449C119.7 104.369 119.09 103.383 118.124 102.899C115.029 101.354 114.008 94.3456 114 91.1995V88.3496C114 82.077 108.887 79.7999 105.45 79.7999Z" fill="#EDF2FA"/>
<path d="M156.75 39.9001H128.25C123.536 39.9001 119.7 36.064 119.7 31.3501V17.1C119.7 15.5269 118.423 14.2501 116.85 14.2501C115.277 14.2501 114 15.5269 114 17.1V31.3501C114 39.2074 120.393 45.6002 128.25 45.6002H153.9V156.75C153.9 161.464 150.064 165.3 145.35 165.3H25.65C20.9362 165.3 17.1 161.464 17.1 156.75V14.2501C17.1 9.53626 20.9362 5.70011 25.65 5.70011H115.67L143.335 33.365C144.45 34.4795 146.251 34.4795 147.365 33.365C148.479 32.2509 148.479 30.4494 147.365 29.3352L118.865 0.834961C118.332 0.29925 117.605 0 116.85 0H25.65C17.7927 0 11.3999 6.39246 11.3999 14.2501V156.75C11.3999 164.608 17.7927 171 25.65 171H145.35C153.207 171 159.6 164.608 159.6 156.75V42.75C159.6 41.1769 158.323 39.9001 156.75 39.9001Z" fill="#EDF2FA"/>
<path d="M65.5785 85.5001C67.1402 85.4857 68.4 84.2146 68.4 82.6502C68.4 81.0771 67.1232 79.8003 65.5501 79.8003C62.1131 79.8003 57.0001 82.0774 57.0001 88.3503L57.9149 89.1084C57.3535 89.6271 57.0001 90.3709 57.0001 91.2002C57.0001 94.3466 55.9912 101.343 52.8761 102.899C51.9099 103.384 51.3 104.37 51.3 105.45C51.3 106.53 51.9099 107.516 52.8761 108.001C56.8575 109.99 56.9971 113.869 57.0001 114V122.55C57.0001 128.823 62.1131 131.1 65.5501 131.1C67.1092 131.1 68.3603 129.846 68.3803 128.287C68.4003 126.725 67.1436 125.44 65.5845 125.4C64.268 125.366 62.7002 124.844 62.7002 122.55V114C62.7002 113.752 62.6461 108.939 58.7502 105.216C61.6659 101.483 62.4324 95.914 62.6318 93.0044L62.7002 93.0615V91.2005C62.7002 90.3712 62.3469 89.6274 61.7855 89.1088L62.7002 88.3506C62.6999 86.0588 64.2646 85.5341 65.5785 85.5001Z" fill="#EDF2FA"/>
<path d="M85.5571 114C83.984 114 82.7213 115.277 82.7213 116.85C82.7213 118.423 84.0124 119.7 85.5855 119.7C87.1586 119.7 88.4354 118.423 88.4354 116.85C88.4354 115.277 87.1586 114 85.5855 114H85.5571Z" fill="#EDF2FA"/>
<path d="M74.1569 114C72.5838 114 71.321 115.277 71.321 116.85C71.321 118.423 72.6122 119.7 74.1853 119.7C75.7584 119.7 77.0352 118.423 77.0352 116.85C77.0352 115.277 75.7584 114 74.1853 114H74.1569Z" fill="#EDF2FA"/>
</svg>
