<svg width="171" height="171" viewBox="0 0 171 171" fill="none" xmlns="http://www.w3.org/2000/svg">
<g clip-path="url(#clip0_31_79)">
<path d="M159.107 137.591C153.414 118.318 124.843 120.456 112.511 114.921C100.179 109.386 102.104 90.8167 100.54 87.5858H70.4566C68.8956 90.8167 70.8211 109.389 58.4864 114.921C46.1547 120.456 17.58 118.318 11.8901 137.591C8.75119 148.221 8.90025 151.472 8.03397 163.247C8.03397 163.247 47.2389 171 84.6133 171C121.988 171 162.966 163.247 162.966 163.247C162.097 151.469 162.246 148.221 159.107 137.591Z" fill="#EDF2FA"/>
<path d="M159.107 137.591C153.414 118.318 124.843 120.456 112.511 114.921C100.179 109.386 102.104 90.8167 100.54 87.5858H84.6103C84.6103 87.5858 84.2432 113.633 96.5749 119.167C108.907 124.702 137.481 122.565 143.171 141.837C146.161 151.96 146.167 155.391 146.91 165.867C156.728 164.429 162.96 163.25 162.96 163.25C162.097 151.469 162.246 148.221 159.107 137.591Z" fill="#606060"/>
<path d="M159.107 137.59C153.515 118.651 125.821 120.389 113.162 115.202C113.162 115.202 111.501 118.238 108.709 122.42C122.143 125.026 138.95 127.542 143.171 141.834C146.161 151.956 146.167 155.388 146.91 165.863C156.728 164.426 162.96 163.247 162.96 163.247C162.097 151.469 162.246 148.221 159.107 137.59Z" fill="#EDF2FA"/>
<path d="M113.165 115.199C112.944 115.107 112.726 115.016 112.514 114.921C100.182 109.386 102.107 90.8167 100.543 87.5858H70.4566C68.8956 90.8167 70.8211 109.389 58.4864 114.921C58.274 115.016 58.056 115.11 57.835 115.199C57.835 115.199 61.5564 122.005 67.2319 129.293C73.7681 137.685 82.5479 146.717 85.5 146.717C88.4496 146.717 97.2293 137.688 103.768 129.293C109.441 122.005 113.165 115.199 113.165 115.199Z" fill="#EAE5DC"/>
<path d="M113.165 115.199C113.059 115.156 112.953 115.11 112.846 115.067C112.841 115.064 112.838 115.064 112.832 115.061C112.723 115.016 112.617 114.97 112.511 114.921C110.293 113.926 108.54 112.508 107.142 110.835C106.084 113.32 103.705 116.924 100.891 120.671C103.255 121.331 105.909 121.876 108.712 122.421C111.503 118.235 113.165 115.199 113.165 115.199Z" fill="#E0DBD3"/>
<path d="M107.142 110.835C100.761 103.203 101.823 90.2342 100.543 87.5833H70.4567C69.1743 90.2342 70.2387 103.203 63.8577 110.835C66.9017 117.997 83.2508 137.163 85.5 137.163C87.7466 137.163 103.846 118.579 107.142 110.835Z" fill="#8E6053"/>
<path d="M96.578 119.164C97.8547 119.738 99.3065 120.229 100.891 120.671C103.705 116.923 106.084 113.32 107.142 110.835C101.739 104.373 101.674 94.0847 101.002 89.4741C100.999 89.4567 100.997 89.4424 100.997 89.4281C100.985 89.348 100.974 89.2704 100.962 89.1959C100.959 89.1698 100.954 89.1468 100.951 89.1213C100.94 89.0524 100.928 88.9866 100.917 88.9233C100.914 88.9003 100.908 88.8742 100.906 88.8513C100.892 88.7793 100.88 88.7109 100.865 88.642C100.862 88.6307 100.86 88.6159 100.857 88.6017C100.839 88.5215 100.823 88.4465 100.805 88.3719C100.802 88.3546 100.797 88.3403 100.794 88.3229C100.78 88.2683 100.768 88.2137 100.754 88.1621C100.748 88.1392 100.742 88.1162 100.734 88.0963C100.723 88.0534 100.708 88.01 100.697 87.9702C100.691 87.9472 100.682 87.9273 100.677 87.9043C100.662 87.864 100.648 87.8242 100.634 87.7869C100.628 87.7696 100.619 87.7527 100.614 87.7354C100.594 87.6838 100.571 87.6322 100.548 87.5863H84.6179C84.6133 87.5858 84.2458 113.633 96.578 119.164Z" fill="#553E36"/>
<path d="M155.236 160.306C155.233 160.134 155.021 142.827 148.74 134.79C144.692 129.608 131.847 126.931 123.345 125.161L122.645 125.014C118.872 124.228 115.822 123.78 115.79 123.778L118.264 118.797C119.572 119.015 121.52 119.36 123.727 119.822L124.427 119.968C134.239 122.011 147.676 124.812 152.921 131.525C159.612 140.09 160.429 156.057 160.527 159.589L155.236 160.306Z" fill="#E0DBD3"/>
<path d="M15.6973 160.306C15.7004 160.134 15.9127 142.827 22.1932 134.79C26.2418 129.608 39.087 126.931 47.5886 125.161L48.2885 125.014C52.0614 124.228 55.1116 123.78 55.1432 123.778L52.6699 118.797C51.3616 119.015 49.4136 119.36 47.2068 119.822L46.5069 119.968C36.6939 122.011 23.2575 124.812 18.0128 131.525C11.322 140.09 10.5042 156.057 10.4067 159.589L15.6973 160.306Z" fill="#EAE5DC"/>
<path d="M66.408 106.778C71.4005 110.841 77.2506 114.869 85.4684 116.034C93.706 114.866 99.5418 110.755 104.54 106.675C100.383 99.0313 101.668 89.9157 100.543 87.5828H70.4566C69.3259 89.9182 70.5858 99.1314 66.408 106.778Z" fill="#7B5347"/>
<path d="M114.902 67.6438C113.835 73.5779 115.585 78.8589 118.812 79.4392C122.039 80.0195 125.52 75.6794 126.587 69.7453C127.654 63.8112 125.903 58.5302 122.677 57.9499C119.45 57.3696 115.969 61.7097 114.902 67.6438Z" fill="#553E36"/>
<path d="M48.2338 57.9552C45.007 58.5355 43.2563 63.8165 44.3235 69.7506C45.3907 75.6847 48.8717 80.0248 52.0984 79.4445C55.3252 78.8642 57.0759 73.5833 56.0087 67.6491C54.9415 61.715 51.4605 57.3749 48.2338 57.9552Z" fill="#8E6053"/>
<path d="M118.252 32.3533L85.4684 16.9572L52.7021 32.3533C52.7021 32.3533 34.3304 107.197 85.4684 114.442C136.626 107.197 118.252 32.3533 118.252 32.3533Z" fill="#8E6053"/>
<path d="M85.4684 114.442C136.627 107.197 118.252 32.3533 118.252 32.3533H110.583C112.683 63.6162 115.589 80.2231 103.53 98.3279C93.9756 112.674 85.4684 114.442 85.4684 114.442Z" fill="#553E36"/>
<path d="M55.8926 48.9286C57.2929 49.5973 58.3169 49.7178 58.3169 49.7178C58.3169 49.7178 76.2067 53.4218 85.7006 53.4218C95.1946 53.4218 112.688 49.7178 112.688 49.7178C112.688 49.7178 113.713 49.5626 115.113 48.8597V36.6428H55.8926V48.9286Z" fill="#8E6053"/>
<path d="M120.823 17.0655C117.561 15.7449 113.512 16.1676 113.512 16.1676C109.75 10.8764 104.578 9.42122 104.578 9.42122L100.83 12.9768L85.5038 2.55237L70.1777 12.9768L66.4301 9.42122C66.4301 9.42122 61.6427 10.6983 57.4961 16.1676C57.4961 16.1676 53.447 15.7445 50.1848 17.0655C50.1848 17.0655 47.9853 31.0769 47.9853 42.7393C47.9853 54.4017 51.644 61.8179 51.644 61.8179L54.7943 62.2783C54.7943 62.2783 53.9528 52.1711 55.0212 45.777C56.0609 39.557 58.2977 36.866 58.2977 36.866C58.2977 36.866 76.203 39.5426 85.7051 39.5426C95.2073 39.5426 112.717 36.866 112.717 36.866C112.717 36.866 115.006 39.9491 115.993 45.8227C117.047 52.0944 116.22 62.2787 116.22 62.2787L119.201 61.8349C119.201 61.8349 123.026 54.1534 123.026 42.7378C123.026 31.3222 120.823 17.0655 120.823 17.0655Z" fill="#575959"/>
<path d="M55.6651 16.3391C55.5946 16.3731 55.5533 16.3968 55.5533 16.3968C54.0971 20.0538 56.8831 22.9716 56.8831 22.9716C55.744 19.0763 57.6844 16.3968 57.6844 16.3968C57.6844 16.3968 56.8659 16.3172 55.6651 16.3391Z" fill="#3F3E3E"/>
<path d="M69.936 12.9165C69.936 12.9165 65.9185 16.4325 66.6798 20.9298C66.6798 20.9298 63.8095 16.1329 68.7593 11.7411L69.936 12.9165Z" fill="#3F3E3E"/>
<path d="M115.346 16.3391C115.417 16.3731 115.458 16.3968 115.458 16.3968C116.914 20.0538 114.128 22.9716 114.128 22.9716C115.267 19.0763 113.327 16.3968 113.327 16.3968C113.327 16.3968 114.145 16.3172 115.346 16.3391Z" fill="#3F3E3E"/>
<path d="M100.565 12.9165C100.565 12.9165 105.084 16.4325 104.228 20.9298C104.228 20.9298 107.457 16.1329 101.889 11.7411L100.565 12.9165Z" fill="#3F3E3E"/>
</g>
<defs>
<clipPath id="clip0_31_79">
<rect width="171" height="171" fill="white"/>
</clipPath>
</defs>
</svg>
