<svg width="100" height="96" viewBox="0 0 100 96" fill="none" xmlns="http://www.w3.org/2000/svg">
<path d="M66.695 69.9833L33.3617 70.0149C26.0283 70.0216 20.0233 64.0283 20.015 56.6949L19.9833 23.3616C19.9767 16.0283 25.97 10.0233 33.3033 10.0149L66.6367 9.98328C73.97 9.97662 79.975 15.9699 79.9833 23.3033L80.015 56.6366C80.0233 63.9716 74.0283 69.9766 66.695 69.9833Z" fill="#2f2f3a"/>
<path d="M66.695 69.9833L33.3617 70.0149C26.0283 70.0216 20.0233 64.0283 20.015 56.6949L19.9833 23.3616C19.9767 16.0283 25.97 10.0233 33.3033 10.0149L66.6367 9.98328C73.97 9.97662 79.975 15.9699 79.9833 23.3033L80.015 56.6366C80.0233 63.9716 74.0283 69.9766 66.695 69.9833Z" fill="#2f2f3a"/>
<path d="M50 51.6667C43.5683 51.6667 38.3333 46.4334 38.3333 40C38.3333 33.5667 43.5683 28.3334 50 28.3334C56.4316 28.3334 61.6666 33.5667 61.6666 40C61.6666 46.4334 56.4316 51.6667 50 51.6667ZM50 31.6667C45.405 31.6667 41.6666 35.405 41.6666 40C41.6666 44.595 45.405 48.3334 50 48.3334C54.595 48.3334 58.3333 44.595 58.3333 40C58.3333 35.405 54.595 31.6667 50 31.6667Z" fill="white"/>
<path d="M62.5 30C63.8807 30 65 28.8807 65 27.5C65 26.1193 63.8807 25 62.5 25C61.1193 25 60 26.1193 60 27.5C60 28.8807 61.1193 30 62.5 30Z" fill="white"/>
<path d="M60 61.6667H40C33.5683 61.6667 28.3333 56.4334 28.3333 50V30C28.3333 23.5667 33.5683 18.3334 40 18.3334H60C66.4316 18.3334 71.6666 23.5667 71.6666 30V50C71.6666 56.4334 66.4316 61.6667 60 61.6667ZM40 21.6667C35.405 21.6667 31.6666 25.405 31.6666 30V50C31.6666 54.595 35.405 58.3334 40 58.3334H60C64.595 58.3334 68.3333 54.595 68.3333 50V30C68.3333 25.405 64.595 21.6667 60 21.6667H40Z" fill="white"/>
<path d="M33.0685 76.2155C33.4218 76.2155 33.7485 76.3121 34.0485 76.5055C34.3485 76.6921 34.5851 76.9488 34.7585 77.2755C34.9385 77.6021 35.0285 77.9621 35.0285 78.3555C35.0285 78.7488 34.9385 79.1121 34.7585 79.4455C34.5851 79.7788 34.3485 80.0421 34.0485 80.2355C33.7485 80.4288 33.4218 80.5255 33.0685 80.5255H31.1885V82.7355C31.1885 82.8688 31.1451 82.9821 31.0585 83.0755C30.9718 83.1688 30.8618 83.2155 30.7285 83.2155C30.5885 83.2155 30.4751 83.1721 30.3885 83.0855C30.3085 82.9921 30.2685 82.8755 30.2685 82.7355V76.6955C30.2685 76.5621 30.3151 76.4488 30.4085 76.3555C30.5018 76.2621 30.6151 76.2155 30.7485 76.2155H33.0685ZM33.0685 79.6155C33.2485 79.6155 33.4151 79.5588 33.5685 79.4455C33.7218 79.3255 33.8418 79.1688 33.9285 78.9755C34.0218 78.7821 34.0685 78.5755 34.0685 78.3555C34.0685 78.0155 33.9685 77.7288 33.7685 77.4955C33.5751 77.2555 33.3418 77.1355 33.0685 77.1355H31.1885V79.6155H33.0685ZM40.6469 80.3955C40.6402 80.5155 40.5902 80.6188 40.4969 80.7055C40.4036 80.7855 40.2936 80.8255 40.1669 80.8255H36.6469C36.6936 81.3121 36.8769 81.7021 37.1969 81.9955C37.5236 82.2888 37.9202 82.4355 38.3869 82.4355C38.7069 82.4355 38.9669 82.3888 39.1669 82.2955C39.3669 82.2021 39.5436 82.0821 39.6969 81.9355C39.7969 81.8755 39.8936 81.8455 39.9869 81.8455C40.1002 81.8455 40.1936 81.8855 40.2669 81.9655C40.3469 82.0455 40.3869 82.1388 40.3869 82.2455C40.3869 82.3855 40.3202 82.5121 40.1869 82.6255C39.9936 82.8188 39.7369 82.9821 39.4169 83.1155C39.0969 83.2488 38.7702 83.3155 38.4369 83.3155C37.8969 83.3155 37.4202 83.2021 37.0069 82.9755C36.6002 82.7488 36.2836 82.4321 36.0569 82.0255C35.8369 81.6188 35.7269 81.1588 35.7269 80.6455C35.7269 80.0855 35.8402 79.5955 36.0669 79.1755C36.3002 78.7488 36.6036 78.4221 36.9769 78.1955C37.3569 77.9688 37.7636 77.8555 38.1969 77.8555C38.6236 77.8555 39.0236 77.9655 39.3969 78.1855C39.7702 78.4055 40.0702 78.7088 40.2969 79.0955C40.5236 79.4821 40.6402 79.9155 40.6469 80.3955ZM38.1969 78.7355C37.8236 78.7355 37.5002 78.8421 37.2269 79.0555C36.9536 79.2621 36.7736 79.5855 36.6869 80.0255H39.6369V79.9455C39.6036 79.5921 39.4436 79.3021 39.1569 79.0755C38.8769 78.8488 38.5569 78.7355 38.1969 78.7355ZM44.36 77.8555C44.5334 77.8555 44.6834 77.9021 44.81 77.9955C44.9367 78.0821 45 78.1921 45 78.3255C45 78.4855 44.9567 78.6088 44.87 78.6955C44.79 78.7755 44.69 78.8155 44.57 78.8155C44.51 78.8155 44.42 78.7955 44.3 78.7555C44.16 78.7088 44.05 78.6855 43.97 78.6855C43.7634 78.6855 43.56 78.7588 43.36 78.9055C43.1667 79.0455 43.0067 79.2421 42.88 79.4955C42.76 79.7421 42.7 80.0188 42.7 80.3255V82.7355C42.7 82.8688 42.6534 82.9821 42.56 83.0755C42.4734 83.1688 42.36 83.2155 42.22 83.2155C42.08 83.2155 41.9667 83.1721 41.88 83.0855C41.7934 82.9921 41.75 82.8755 41.75 82.7355V78.4555C41.75 78.3221 41.7934 78.2088 41.88 78.1155C41.9734 78.0221 42.0867 77.9755 42.22 77.9755C42.36 77.9755 42.4734 78.0221 42.56 78.1155C42.6534 78.2088 42.7 78.3221 42.7 78.4555V78.9655C42.8467 78.6388 43.0667 78.3755 43.36 78.1755C43.6534 77.9688 43.9867 77.8621 44.36 77.8555ZM45.5809 82.3955C45.5209 82.3021 45.4909 82.2121 45.4909 82.1255C45.4909 81.9921 45.5609 81.8788 45.7009 81.7855C45.7676 81.7388 45.8442 81.7155 45.9309 81.7155C46.0509 81.7155 46.1609 81.7655 46.2609 81.8655C46.4609 82.0921 46.6742 82.2621 46.9009 82.3755C47.1342 82.4888 47.4109 82.5455 47.7309 82.5455C47.9842 82.5388 48.2076 82.4821 48.4009 82.3755C48.5942 82.2621 48.6909 82.0821 48.6909 81.8355C48.6909 81.6088 48.5909 81.4355 48.3909 81.3155C48.1976 81.1955 47.9109 81.0855 47.5309 80.9855C47.1576 80.8855 46.8476 80.7821 46.6009 80.6755C46.3542 80.5621 46.1442 80.4021 45.9709 80.1955C45.8042 79.9821 45.7209 79.7055 45.7209 79.3655C45.7209 79.0655 45.8042 78.8021 45.9709 78.5755C46.1442 78.3488 46.3709 78.1721 46.6509 78.0455C46.9376 77.9188 47.2476 77.8555 47.5809 77.8555C47.9009 77.8555 48.2176 77.9155 48.5309 78.0355C48.8509 78.1555 49.1109 78.3388 49.3109 78.5855C49.3909 78.6788 49.4309 78.7755 49.4309 78.8755C49.4309 78.9821 49.3776 79.0855 49.2709 79.1855C49.2042 79.2455 49.1209 79.2755 49.0209 79.2755C48.9009 79.2755 48.8042 79.2355 48.7309 79.1555C48.5909 78.9955 48.4176 78.8721 48.2109 78.7855C48.0109 78.6988 47.7876 78.6555 47.5409 78.6555C47.2876 78.6555 47.0709 78.7088 46.8909 78.8155C46.7176 78.9155 46.6309 79.0888 46.6309 79.3355C46.6376 79.5688 46.7376 79.7421 46.9309 79.8555C47.1309 79.9688 47.4342 80.0788 47.8409 80.1855C48.1942 80.2788 48.4876 80.3788 48.7209 80.4855C48.9542 80.5921 49.1509 80.7521 49.3109 80.9655C49.4709 81.1721 49.5509 81.4455 49.5509 81.7855C49.5509 82.0988 49.4609 82.3721 49.2809 82.6055C49.1009 82.8321 48.8642 83.0088 48.5709 83.1355C48.2842 83.2555 47.9776 83.3155 47.6509 83.3155C47.2309 83.3155 46.8409 83.2421 46.4809 83.0955C46.1276 82.9488 45.8276 82.7155 45.5809 82.3955ZM55.6065 80.5955C55.6065 81.1155 55.4899 81.5821 55.2565 81.9955C55.0232 82.4088 54.7032 82.7321 54.2965 82.9655C53.8965 83.1988 53.4532 83.3155 52.9665 83.3155C52.4799 83.3155 52.0332 83.1988 51.6265 82.9655C51.2265 82.7321 50.9099 82.4088 50.6765 81.9955C50.4432 81.5821 50.3265 81.1155 50.3265 80.5955C50.3265 80.0755 50.4432 79.6055 50.6765 79.1855C50.9099 78.7655 51.2265 78.4388 51.6265 78.2055C52.0332 77.9721 52.4799 77.8555 52.9665 77.8555C53.4532 77.8555 53.8965 77.9721 54.2965 78.2055C54.7032 78.4388 55.0232 78.7655 55.2565 79.1855C55.4899 79.6055 55.6065 80.0755 55.6065 80.5955ZM54.6565 80.5955C54.6565 80.2355 54.5799 79.9155 54.4265 79.6355C54.2799 79.3488 54.0765 79.1288 53.8165 78.9755C53.5632 78.8155 53.2799 78.7355 52.9665 78.7355C52.6532 78.7355 52.3665 78.8155 52.1065 78.9755C51.8532 79.1288 51.6499 79.3488 51.4965 79.6355C51.3499 79.9155 51.2765 80.2355 51.2765 80.5955C51.2765 80.9488 51.3499 81.2655 51.4965 81.5455C51.6499 81.8255 51.8532 82.0455 52.1065 82.2055C52.3665 82.3588 52.6532 82.4355 52.9665 82.4355C53.2799 82.4355 53.5632 82.3588 53.8165 82.2055C54.0765 82.0455 54.2799 81.8255 54.4265 81.5455C54.5799 81.2655 54.6565 80.9488 54.6565 80.5955ZM59.381 77.8555C60.581 77.8555 61.181 78.5755 61.181 80.0155V82.7355C61.181 82.8688 61.1343 82.9821 61.041 83.0755C60.9543 83.1688 60.841 83.2155 60.701 83.2155C60.5676 83.2155 60.4543 83.1688 60.361 83.0755C60.2743 82.9821 60.231 82.8688 60.231 82.7355V80.0255C60.231 79.6321 60.141 79.3188 59.961 79.0855C59.781 78.8521 59.4876 78.7355 59.081 78.7355C58.8143 78.7355 58.571 78.7955 58.351 78.9155C58.1376 79.0288 57.9676 79.1855 57.841 79.3855C57.721 79.5788 57.661 79.7921 57.661 80.0255V82.7355C57.661 82.8688 57.6143 82.9821 57.521 83.0755C57.4343 83.1688 57.321 83.2155 57.181 83.2155C57.041 83.2155 56.9276 83.1721 56.841 83.0855C56.7543 82.9921 56.711 82.8755 56.711 82.7355V78.4555C56.711 78.3221 56.7543 78.2088 56.841 78.1155C56.9343 78.0221 57.0476 77.9755 57.181 77.9755C57.321 77.9755 57.4343 78.0221 57.521 78.1155C57.6143 78.2088 57.661 78.3221 57.661 78.4555V78.8055C57.8343 78.5388 58.0743 78.3155 58.381 78.1355C58.6943 77.9488 59.0276 77.8555 59.381 77.8555ZM66.8496 77.9055C66.9896 77.9055 67.103 77.9521 67.1896 78.0455C67.283 78.1321 67.3296 78.2488 67.3296 78.3955V82.7355C67.3296 82.8688 67.283 82.9821 67.1896 83.0755C67.103 83.1688 66.9896 83.2155 66.8496 83.2155C66.7096 83.2155 66.5963 83.1721 66.5096 83.0855C66.423 82.9921 66.3796 82.8755 66.3796 82.7355V82.4755C66.2063 82.7088 65.9696 82.9088 65.6696 83.0755C65.3696 83.2355 65.0463 83.3155 64.6996 83.3155C64.2463 83.3155 63.833 83.1988 63.4596 82.9655C63.093 82.7321 62.803 82.4088 62.5896 81.9955C62.383 81.5755 62.2796 81.1055 62.2796 80.5855C62.2796 80.0655 62.383 79.5988 62.5896 79.1855C62.803 78.7655 63.093 78.4388 63.4596 78.2055C63.8263 77.9721 64.2296 77.8555 64.6696 77.8555C65.023 77.8555 65.3496 77.9288 65.6496 78.0755C65.9563 78.2221 66.1996 78.4088 66.3796 78.6355V78.3955C66.3796 78.2555 66.423 78.1388 66.5096 78.0455C66.5963 77.9521 66.7096 77.9055 66.8496 77.9055ZM64.8096 82.4355C65.123 82.4355 65.3996 82.3555 65.6396 82.1955C65.8863 82.0355 66.0763 81.8155 66.2096 81.5355C66.3496 81.2555 66.4196 80.9388 66.4196 80.5855C66.4196 80.2388 66.3496 79.9255 66.2096 79.6455C66.0763 79.3655 65.8863 79.1455 65.6396 78.9855C65.3996 78.8188 65.123 78.7355 64.8096 78.7355C64.4963 78.7355 64.2163 78.8155 63.9696 78.9755C63.7296 79.1355 63.5396 79.3555 63.3996 79.6355C63.2663 79.9155 63.1996 80.2321 63.1996 80.5855C63.1996 80.9388 63.2663 81.2555 63.3996 81.5355C63.5396 81.8155 63.7296 82.0355 63.9696 82.1955C64.2163 82.3555 64.4963 82.4355 64.8096 82.4355ZM69.7722 82.7355C69.7722 82.8688 69.7256 82.9821 69.6322 83.0755C69.5389 83.1688 69.4256 83.2155 69.2922 83.2155C69.1589 83.2155 69.0456 83.1688 68.9522 83.0755C68.8656 82.9821 68.8222 82.8688 68.8222 82.7355V76.2955C68.8222 76.1621 68.8689 76.0488 68.9622 75.9555C69.0556 75.8621 69.1689 75.8155 69.3022 75.8155C69.4356 75.8155 69.5456 75.8621 69.6322 75.9555C69.7256 76.0488 69.7722 76.1621 69.7722 76.2955V82.7355Z" fill="#2f2f3a"/>
</svg>
