<svg width="48" height="50" viewBox="0 0 48 50" fill="none" xmlns="http://www.w3.org/2000/svg">
<g clip-path="url(#clip0_13_2)">
<path d="M26.3023 0.935715H26.8885L27.1536 9.75119L24.8742 9.43058V5.00413L25.3534 1.83893L26.3023 0.935715Z" fill="#EDF2FA"/>
<path d="M25.9084 29.0394C25.8846 30.1334 25.8588 31.1775 25.8311 32.1716C25.0878 32.1815 23.4744 32.2465 23.1553 32.2982C22.7361 32.3657 20.8835 32.6745 20.718 32.8217C20.5525 32.969 20.0084 33.392 19.9366 33.6028C19.8647 33.8136 18.4005 37.0763 18.506 37.2497C18.5754 37.3654 18.5407 37.4565 18.401 37.5225H18.1106C17.955 37.5225 17.8817 37.6875 17.8307 37.7894C17.7796 37.8914 17.6894 38.5006 17.6894 38.5661C17.6894 38.6316 16.4908 39.0162 16.3481 39.1728C16.2054 39.3294 15.75 40.8325 15.7154 40.9325C15.6807 41.0324 15.4032 40.9743 15.3239 41.031C15.2446 41.0876 13.3483 43.8066 13.2701 44.2031C13.1918 44.5995 11.9352 46.7512 11.9352 47.0275C11.9352 47.3037 11.6716 47.5593 11.6716 47.7169C11.6716 47.8248 10.1633 49.1545 9.806 49.9991C9.15193 49.9937 8.72382 49.9907 8.62175 49.9947C7.95133 50.0203 5.66855 49.6613 6.08477 49.6366C6.501 49.612 8.76941 48.5443 9.01518 48.2537C9.26095 47.9632 10.5745 47.0649 10.3203 47.0846C10.0661 47.1043 7.14911 48.3256 7.14911 48.2537C7.14911 48.1818 4.57151 49.5455 4.65772 49.122C4.74394 48.6985 6.88154 44.9497 7.14763 44.6512C7.41371 44.3528 10.5706 42.9364 10.3188 43.0418C10.0671 43.1472 8.93144 43.0418 8.42206 43.2639C7.91268 43.486 5.19287 44.6103 5.14431 44.3163C5.09575 44.0223 7.37704 41.0901 8.00385 40.4523C8.63067 39.8145 9.94127 39.5737 10.573 39.5944C11.2048 39.6151 11.8713 38.9443 11.8713 38.7626C11.8713 38.5808 12.0957 34.6774 12.3132 34.6331C12.3593 34.6232 12.3861 34.3868 12.397 34.0175C12.8519 33.8553 13.5835 33.5434 14.5921 33.0818C14.5921 32.828 14.6776 32.704 14.8487 32.7099C15.1059 32.7183 16.4839 31.5216 16.689 31.4186C16.8942 31.3157 17.1132 30.3165 17.3332 30.2608C17.5532 30.2052 17.8916 29.7841 18.1319 29.7841C18.3722 29.7841 17.8698 29.0005 18.1319 28.9961C18.3941 28.9917 18.7037 27.8496 18.9317 27.8141C19.1596 27.7787 19.6105 25.0646 19.4123 26.2958C19.2802 27.1166 19.7592 27.837 20.8493 28.4568V29.7816L25.9084 29.0394ZM26.1393 10.6205C24.7674 10.0591 23.9797 9.77098 23.7762 9.75621C23.5727 9.74143 23.2331 10.3442 22.7575 11.5646V12.1167C22.4707 12.0182 22.238 12.0182 22.0593 12.1167C21.8806 12.2152 21.9699 12.8525 22.3274 14.0285L23.2886 14.5939C23.0244 15.2243 22.8476 15.5329 22.7584 15.5198C22.6247 15.4996 20.0074 17.1661 18.9341 17.1218C17.8609 17.0775 16.9289 18.287 16.6895 18.4569C16.4502 18.6268 16.4864 19.7069 16.2436 19.8221C16.0008 19.9373 15.206 21.1917 14.8487 21.3665C14.6109 21.4834 14.73 22.1465 15.206 23.3557C15.467 23.7313 15.467 23.976 15.206 24.09C14.8145 24.2614 14.8487 26.2963 14.8487 26.7888C14.8487 27.2813 14.8487 27.6152 14.2749 27.5541C13.7011 27.493 13.4063 28.4573 13.0362 28.4573C12.666 28.4573 12.5813 29.5191 12.2498 29.5447C12.2066 29.5497 12.1644 29.5608 12.1245 29.5777C12.1145 29.5615 12.1051 29.5541 12.0952 29.557C11.9505 29.6017 10.726 29.3924 8.42156 28.9291C7.74372 28.5864 7.74372 28.4539 8.42156 28.5317C9.43883 28.6484 11.8708 26.9262 12.0952 26.6868C12.3197 26.4475 11.8708 23.8797 12.3127 23.4153C12.7547 22.9509 14.047 21.5783 13.8151 21.5783C13.5832 21.5783 12.0536 21.6202 11.8708 21.5783C11.6879 21.5364 10.3907 22.9834 10.5725 22.2811C10.6938 21.8129 11.2738 20.8266 12.3127 19.3222C13.8822 18.6488 14.6008 18.3302 14.4687 18.3663C14.2705 18.4205 12.335 16.3132 12.5724 16.5756C12.8097 16.8381 14.0485 16.6136 14.6669 16.5944C15.0791 16.5822 15.4949 16.4248 15.9141 16.1221L15.5974 15.7655C15.0233 15.6148 14.6471 15.5135 14.4687 15.4616C14.2011 15.3833 13.8146 15.3755 12.889 15.1785C11.9634 14.9815 17.2797 14.1812 17.0646 14.1521C16.8496 14.1231 15.5583 13.3174 15.5974 13.114C15.6232 12.979 15.313 12.1625 14.6669 10.6643C15.5258 11.3702 16.0543 11.7363 16.2525 11.7626C16.5498 11.8025 18.0943 11.3499 17.8842 11.2657C17.7441 11.2095 17.3561 10.3245 16.7202 8.61069L19.009 10.2477C20.2332 10.4289 20.4666 10.3948 19.7091 10.1453C18.5729 9.77098 16.3892 8.16056 16.7202 7.902C17.0512 7.64345 20.0302 7.902 20.0168 7.22139C20.0079 6.76732 20.4553 5.29643 21.3591 2.80872C21.5844 4.26451 21.7222 4.85648 21.7724 4.58462C21.8226 4.31277 22.3252 3.39626 23.2802 1.83508C23.2802 3.18351 23.2672 3.73607 23.2411 3.49279C23.215 3.2495 24.3374 2.13501 26.6085 0.149307C26.298 1.00295 26.0322 1.56553 25.8112 1.83705C25.5902 2.10858 25.6996 5.03705 26.1393 10.6225V10.6205Z" fill="#EDF2FA"/>
<path d="M40.0332 34.0075C40.047 34.2892 40.0718 34.4646 40.1115 34.4729C40.329 34.5173 40.5535 38.4197 40.5535 38.6014C40.5535 38.7832 41.2199 39.4539 41.8517 39.4327C42.4834 39.4116 43.794 39.6524 44.4209 40.2902C45.0477 40.9279 47.3295 43.8592 47.2804 44.1532C47.2313 44.4472 44.511 43.3234 44.0007 43.1013C43.4903 42.8792 42.3581 42.9845 42.1039 42.8792C41.8497 42.7738 45.0065 44.1897 45.2751 44.4881C45.5437 44.7865 47.6763 48.5348 47.765 48.9574C47.8537 49.38 45.2751 48.0217 45.2751 48.0921C45.2751 48.1625 42.3606 46.9431 42.1039 46.9234C41.8472 46.9037 43.1633 47.8015 43.409 48.0921C43.6548 48.3827 45.9232 49.4499 46.3394 49.4745C46.7557 49.4991 44.4729 49.8577 43.8025 49.8325C43.7034 49.8286 43.3773 49.8513 42.8957 49.8907C42.4745 49.0456 41.0737 47.807 41.0737 47.703C41.0737 47.5445 40.8101 47.2884 40.8101 47.0136C40.8101 46.7388 39.5535 44.5861 39.4752 44.1901C39.3969 43.7942 37.5016 41.0781 37.4219 41.0195C37.3421 40.9609 37.0646 41.0195 37.0299 40.921C36.9952 40.8225 36.5399 39.319 36.3972 39.1624C36.2545 39.0058 35.0593 38.6206 35.0558 38.5556C35.0524 38.4906 34.9637 37.8819 34.9126 37.7795C34.8616 37.677 34.7883 37.5126 34.6332 37.5126H34.3423C34.2026 37.4461 34.1679 37.3554 34.2378 37.2397C34.3423 37.0664 32.8791 33.8051 32.8068 33.5953C32.7344 33.3855 32.1918 32.9615 32.0263 32.8142C31.8608 32.667 30.0101 32.3562 29.5914 32.2868C29.2084 32.2252 26.9816 32.144 26.5971 32.1617C26.5694 31.1679 26.5433 30.1238 26.5188 29.0295L31.573 29.7712V28.4474C32.6631 27.8269 33.142 27.1065 33.0099 26.2864C32.8117 25.0552 33.2621 27.7702 33.4906 27.8042C33.719 27.8382 34.0282 28.9812 34.2903 28.9862C34.5524 28.9911 34.0495 29.7741 34.2903 29.7741C34.5311 29.7741 34.8671 30.1957 35.089 30.2509C35.311 30.306 35.5291 31.3058 35.7332 31.4087C35.9373 31.5116 37.3163 32.7079 37.5735 32.699C37.7443 32.6931 37.8298 32.817 37.8302 33.0708C38.8446 33.5338 39.579 33.846 40.0332 34.0075ZM40.2571 29.552C40.2304 29.5426 40.2026 29.5365 40.1744 29.5338C39.8429 29.5082 39.7582 28.4474 39.388 28.4474C39.0179 28.4474 38.7241 27.4836 38.1493 27.5442C37.5745 27.6047 37.5755 27.2713 37.5755 26.7788C37.5755 26.2864 37.6097 24.2524 37.2182 24.081C36.9573 23.9668 36.9573 23.7222 37.2182 23.3472C37.6946 22.1383 37.8137 21.4754 37.5755 21.3586C37.2182 21.1837 36.4229 19.9304 36.1806 19.8146C35.9383 19.6989 35.975 18.6199 35.7347 18.4499C35.4944 18.28 34.5628 17.071 33.4901 17.1153C32.4173 17.1596 29.8005 15.4936 29.6668 15.5133C29.5779 15.5264 29.4012 15.2178 29.1366 14.5874L30.0969 14.021C30.4543 12.8447 30.5436 12.2075 30.3649 12.1097C30.1862 12.0119 29.9535 12.0119 29.6668 12.1097V11.5596C29.1957 10.3389 28.8561 9.73609 28.648 9.75119C28.4399 9.7663 27.6514 10.0552 26.2825 10.618C26.2825 10.5825 26.2825 10.547 26.2825 10.5116C26.7238 4.89727 26.8343 1.95566 26.614 1.68676C26.3936 1.41786 26.1275 0.85561 25.8157 0C28.0871 1.98635 29.2102 3.10118 29.1851 3.34446C29.16 3.58775 29.147 3.03535 29.146 1.68725C30.0997 3.2481 30.6016 4.16445 30.6518 4.4363C30.702 4.70815 30.8398 4.11586 31.0651 2.65942C31.9689 5.14482 32.4163 6.61456 32.4074 7.06863C32.394 7.74924 35.374 7.49118 35.704 7.74925C36.034 8.00731 33.8513 9.61773 32.7151 9.99202C31.9576 10.2412 32.191 10.2752 33.4152 10.094L35.704 8.45793C35.0684 10.1708 34.6804 11.0555 34.54 11.1119C34.3299 11.1961 35.8739 11.6482 36.1717 11.6088C36.3699 11.5823 36.8985 11.2163 37.7573 10.5111C37.1112 12.0083 36.801 12.8245 36.8268 12.9597C36.8659 13.1626 35.5746 13.9678 35.3596 13.9974C35.1445 14.0269 40.4603 14.8262 39.5352 15.0232C38.6101 15.2202 38.2231 15.2286 37.9555 15.3064C37.7771 15.3586 37.4009 15.4599 36.8268 15.6103L36.5101 15.9668C36.9297 16.2686 37.3454 16.426 37.7573 16.4391C38.3757 16.4583 39.614 16.6824 39.8518 16.4199C40.0897 16.1574 38.1537 18.2653 37.9555 18.2116C37.8234 18.1755 38.5422 18.4939 40.112 19.167C41.1519 20.6711 41.7318 21.657 41.8517 22.1249C42.0335 22.8267 40.7358 21.3807 40.5535 21.4226C40.3711 21.4644 38.843 21.4226 38.6091 21.4226C38.3752 21.4226 39.6695 22.7951 40.1115 23.2586C40.5535 23.722 40.104 26.2903 40.329 26.5292C40.5539 26.768 42.9854 28.4902 44.0007 28.3735C44.6785 28.295 44.6785 28.4275 44.0007 28.7709C41.6976 29.2339 40.4737 29.444 40.329 29.4013C40.3047 29.3915 40.2809 29.4471 40.2571 29.552Z" fill="#EDF2FA"/>
<path d="M20.6748 30.771C19.9527 30.7976 19.5827 30.8468 19.5648 30.9187C19.5465 30.9911 19.5465 31.1221 19.5648 31.3127C19.256 31.8643 19.1131 32.1724 19.1362 32.2371C19.1699 32.3356 17.6725 32.7227 17.5576 32.8231C17.4426 32.9236 15.969 36.3897 15.8728 36.5084C15.7767 36.6271 15.1791 36.798 14.7495 36.7679C14.3199 36.7379 13.4612 36.8512 13.3161 36.7384C13.1709 36.6256 10.2647 35.324 10.2415 35.1782C10.2182 35.0324 9.52347 34.5271 9.38076 34.4247C9.23806 34.3223 8.22129 34.1657 8.07164 34.2144C7.922 34.2632 5.62237 33.8697 5.48363 33.5348C5.34489 33.1999 5.88003 31.8771 5.91967 31.6683C5.95931 31.4595 5.83197 31.0674 5.65805 30.9197C5.48413 30.7719 5.3112 29.5112 5.48363 29.2694C5.65607 29.0276 7.00037 27.6653 7.29222 27.5851C7.58407 27.5048 9.17067 26.9695 9.27423 26.9237C9.37779 26.8779 9.63595 26.704 9.5091 26.6838C9.38225 26.6636 6.49248 26.9227 6.34382 26.9227C6.19517 26.9227 7.10393 25.7619 8.30503 25.5895C9.50613 25.4172 10.73 25.2743 10.9411 25.2788C11.0818 25.2824 11.2039 25.2809 11.3073 25.2743C9.64999 24.6075 8.73595 24.273 8.56517 24.2707C8.30701 24.2677 6.24572 24.2771 5.81611 24.2741C5.38651 24.2711 4.39055 23.3837 4.36181 23.1286C4.33307 22.8735 5.10507 20.8001 5.38205 20.7356C5.65904 20.6711 2.24948 22.3268 2.13205 22.4381C2.01461 22.5494 0.36211 24.9596 0.436931 25.2743C0.511752 25.589 0.348236 29.2989 0.348236 29.6427C0.348236 29.9864 0.574186 30.3351 0.661394 30.771C0.748603 31.2068 3.6027 35.388 4.36181 35.4446C4.86789 35.4821 5.93784 35.5008 7.57168 35.5008C8.59077 36.0235 9.12062 36.2945 9.16126 36.3139C9.22171 36.3439 12.8047 39.121 13.0609 39.1033C13.317 39.0856 15.4933 38.438 15.75 38.2799C16.0066 38.1218 18.723 36.4404 18.9306 36.3139C19.1382 36.1873 20.4934 35.2565 21.0117 34.6178C21.3592 34.1919 21.2469 32.9097 20.6748 30.771Z" fill="#EDF2FA"/>
<path d="M16.8991 34.8709C15.5335 34.6946 14.8208 34.6358 14.761 34.6946C14.6714 34.7827 13.1021 35.975 13.0268 36.1371C12.9515 36.2991 12.7696 36.4818 12.6844 36.6493C12.5992 36.8167 10.2148 39.6391 8.84622 39.9139C7.47764 40.1887 6.68484 40.0617 6.55551 40.042C6.42619 40.0223 2.98938 38.5586 2.97798 38.4138C2.96659 38.269 1.37751 37.2437 1.33787 37.0841C1.29823 36.9246 -0.499457 32.1337 0.135282 31.033C0.559102 30.2992 0.740787 29.9728 0.680335 30.0539L4.94909 35.619V37.0841C5.47763 37.8425 5.97792 38.1323 6.44997 37.9534C6.92202 37.7744 7.8937 37.2793 9.36502 36.468L12.784 34.5907H14.0277C15.5869 33.6149 16.4225 33.1091 16.5344 33.0733C16.7019 33.0192 18.1037 33.0733 18.1602 33.0733C18.2167 33.0733 18.3188 34.6764 18.1037 34.8709C17.9597 35.0003 17.5582 35.0003 16.8991 34.8709Z" fill="#EDF2FA"/>
<path d="M26.1626 32.4745V28.7119C24.7514 28.8297 23.7769 28.9387 23.2391 29.0389C21.3661 29.3885 20.4009 29.8352 20.3488 30.0588C20.2742 30.3786 20.3256 30.4771 20.5029 30.3543V30.766C20.5029 31.0655 20.4038 32.2051 20.5029 32.4749C20.5698 32.6608 20.6215 32.8517 20.6575 33.0457C21.8246 32.8159 22.7268 32.6741 23.364 32.6202C24.0012 32.5664 24.9341 32.5178 26.1626 32.4745Z" fill="#EDF2FA"/>
<path d="M26.0634 32.4745V28.7119C27.4746 28.8297 28.4491 28.9387 28.9869 29.0389C30.8599 29.3885 31.8251 29.8352 31.8772 30.0588C31.9518 30.3786 31.9005 30.4771 31.7231 30.3543V30.766C31.7231 31.0655 31.8222 32.2051 31.7231 32.4749C31.6563 32.6608 31.6046 32.8517 31.5685 33.0457C30.4014 32.8159 29.4993 32.6741 28.862 32.6202C28.2248 32.5664 27.292 32.5178 26.0634 32.4745Z" fill="#EDF2FA"/>
<path d="M26.2854 10.6179L26.2154 10.6411L26.1394 10.617L25.9257 9.49902L26.592 9.55714L26.2854 10.6179Z" fill="#EDF2FA"/>
</g>
<defs>
<clipPath id="clip0_13_2">
<rect width="47.7665" height="50" fill="white"/>
</clipPath>
</defs>
</svg>
