<svg width="171" height="171" viewBox="0 0 171 171" fill="none" xmlns="http://www.w3.org/2000/svg">
<path d="M169.602 92.5579H81.2083C80.4366 92.5579 79.8105 93.1835 79.8105 93.9556V106.755C79.8105 107.527 80.4362 108.153 81.2083 108.153H94.8994V157.818C94.8994 159.94 96.6198 161.66 98.7414 161.66C100.863 161.66 102.583 159.94 102.583 157.818V108.153H148.227V157.818C148.227 159.94 149.947 161.66 152.069 161.66C154.19 161.66 155.911 159.94 155.911 157.818V108.153H169.602C170.374 108.153 171 107.527 171 106.755V93.9552C171 93.1835 170.374 92.5579 169.602 92.5579Z" fill="#EDF2FA"/>
<path d="M60.3738 40.0768C68.8605 40.0768 75.7404 33.1969 75.7404 24.7102C75.7404 16.2235 68.8605 9.34363 60.3738 9.34363C51.8871 9.34363 45.0072 16.2235 45.0072 24.7102C45.0072 33.1969 51.8871 40.0768 60.3738 40.0768Z" fill="#EDF2FA"/>
<path d="M66.1934 100.226C68.6725 101.02 70.639 102.925 71.5129 105.377L87.5921 150.499C89.1412 154.845 86.8736 159.624 82.5272 161.173C81.6001 161.504 80.6536 161.66 79.7228 161.66C76.2894 161.66 73.0716 159.528 71.8531 156.108L59.4255 121.233H41.4697V144.041L54.6999 154.842C56.3438 156.184 56.5884 158.604 55.2464 160.248C54.4869 161.178 53.3821 161.66 52.268 161.66C51.4138 161.66 50.5543 161.377 49.8406 160.795L41.4697 153.961V157.818C41.4697 159.94 39.7493 161.66 37.6278 161.66C35.5063 161.66 33.7859 159.94 33.7859 157.818V153.961L25.4147 160.795C23.7701 162.136 21.3505 161.892 20.0085 160.248C18.6669 158.604 18.9115 156.184 20.5553 154.842L33.7863 144.041V121.233H13.6729C10.8674 121.233 8.49982 119.146 8.14741 116.363L0.0449816 52.3855C-0.341627 49.3339 1.81855 46.5469 4.87053 46.1603C7.92176 45.773 10.7091 47.9343 11.0957 50.9859L18.581 110.093H22.5642C20.5598 107.96 19.7698 105.034 20.3345 102.257L30.5722 51.8974C31.1491 49.061 32.8837 46.5938 35.358 45.092C37.8323 43.5901 40.8214 43.189 43.6039 43.9864L60.5842 48.8513C66.0952 50.4301 69.2833 56.178 67.7041 61.6894L67.2283 63.4462L52.0989 52.1966L66.3785 70.3721L89.162 68.5595C93.4626 68.6388 97.5726 71.0174 97.8778 74.85C98.0592 77.1306 97.1146 79.2358 95.5169 80.6362L63.7622 84.5487C61.4299 84.7335 59.1716 83.7383 57.7355 81.9097L41.1497 60.7987L52.032 86.3907C53.2661 89.2809 55.9137 91.3913 59.0437 91.9188L57.4653 97.428L66.1934 100.226Z" fill="#EDF2FA"/>
<rect x="84.7934" y="90.4463" width="28.2645" height="2.82645" fill="#EDF2FA"/>
<rect x="120.06" y="65.7175" width="28.2645" height="2.82645" transform="rotate(104.532 120.06 65.7175)" fill="#EDF2FA"/>
</svg>
