<svg width="80" height="80" viewBox="0 0 80 80" fill="none" xmlns="http://www.w3.org/2000/svg">
<g clip-path="url(#clip0_16_150)">
<path d="M22.6667 18.6666C19.69 18.6666 16.7426 19.2529 13.9925 20.392C11.2425 21.5311 8.74371 23.2007 6.63891 25.3055C4.53412 27.4103 2.8645 29.9091 1.7254 32.6591C0.586291 35.4092 0 38.3567 0 41.3333C0 44.3099 0.586291 47.2574 1.7254 50.0075C2.8645 52.7575 4.53412 55.2563 6.63891 57.361C8.74371 59.4658 11.2425 61.1355 13.9925 62.2746C16.7426 63.4137 19.69 64 22.6667 64C25.6433 64 28.5908 63.4137 31.3408 62.2746C34.0909 61.1355 36.5896 59.4658 38.6944 57.361C40.7992 55.2563 42.4688 52.7575 43.6079 50.0075C44.747 47.2574 45.3333 44.3099 45.3333 41.3333C45.3333 38.3567 44.747 35.4092 43.6079 32.6591C42.4688 29.9091 40.7992 27.4103 38.6944 25.3055C36.5896 23.2007 34.0909 21.5311 31.3408 20.392C28.5908 19.2529 25.6433 18.6666 22.6667 18.6666ZM58.6667 21.3333C57.2659 21.3333 55.8789 21.8506 54.5847 22.8557C53.2906 23.8608 52.1147 25.334 51.1242 27.1912C50.1337 29.0483 49.348 31.2531 48.812 33.6796C48.2759 36.1061 48 38.7069 48 41.3333C48 43.9597 48.2759 46.5604 48.812 48.987C49.348 51.4135 50.1337 53.6183 51.1242 55.4754C52.1147 57.3326 53.2906 58.8058 54.5847 59.8109C55.8789 60.816 57.2659 61.3333 58.6667 61.3333C60.0674 61.3333 61.4545 60.816 62.7486 59.8109C64.0428 58.8058 65.2187 57.3326 66.2091 55.4754C67.1996 53.6183 67.9853 51.4135 68.5214 48.987C69.0574 46.5604 69.3333 43.9597 69.3333 41.3333C69.3333 38.7069 69.0574 36.1061 68.5214 33.6796C67.9853 31.2531 67.1996 29.0483 66.2091 27.1912C65.2187 25.334 64.0428 23.8608 62.7486 22.8557C61.4545 21.8506 60.0674 21.3333 58.6667 21.3333ZM76 24C74.9391 24 73.9217 25.8261 73.1716 29.0768C72.4214 32.3274 72 36.7362 72 41.3333C72 45.9304 72.4214 50.3392 73.1716 53.5898C73.9217 56.8404 74.9391 58.6666 76 58.6666C77.0609 58.6666 78.0783 56.8404 78.8284 53.5898C79.5786 50.3392 80 45.9304 80 41.3333C80 36.7362 79.5786 32.3274 78.8284 29.0768C78.0783 25.8261 77.0609 24 76 24Z" fill="#2f2f3a"/>
</g>
<defs>
<clipPath id="clip0_16_150">
<rect width="80" height="80" fill="white"/>
</clipPath>
</defs>
</svg>
