<svg width="100" height="100" viewBox="0 0 100 100" fill="none" xmlns="http://www.w3.org/2000/svg">
<path d="M82.2201 34.3061C81.1827 33.949 80.1078 33.6112 79.001 33.2917C79.1829 32.5493 79.3498 31.8164 79.4983 31.0961C81.9351 19.2675 80.3418 9.73838 74.9013 6.60097C69.6845 3.59262 61.1529 6.72931 52.5363 14.228C51.7077 14.9491 50.8768 15.7125 50.0463 16.5127C49.4929 15.9833 48.9404 15.4717 48.3893 14.9824C39.3589 6.96427 30.3073 3.58532 24.8721 6.7318C19.6603 9.74888 18.1169 18.7072 20.3104 29.9172C20.5222 31 20.7698 32.1057 21.0498 33.2299C19.7687 33.5936 18.532 33.9813 17.3486 34.3937C6.76146 38.0848 0 43.8698 0 49.8703C0 56.0677 7.25843 62.2838 18.2858 66.0529C19.156 66.3503 20.059 66.6316 20.9896 66.8986C20.6875 68.1145 20.4248 69.306 20.2043 70.4681C18.1128 81.4836 19.7461 90.2303 24.944 93.2283C30.313 96.3244 39.3236 93.142 48.0977 85.4724C48.7912 84.8661 49.4872 84.2232 50.1844 83.5493C51.0881 84.4195 51.9904 85.2431 52.8879 86.0156C61.3866 93.329 69.7805 96.2822 74.9736 93.2758C80.3372 90.1708 82.0803 80.7748 79.8173 69.343C79.6444 68.4699 79.4433 67.578 79.2174 66.6702C79.8502 66.4831 80.4714 66.29 81.0771 66.0892C92.5411 62.2909 100 56.1505 100 49.8703C100 43.8481 93.0205 38.0241 82.2201 34.3061ZM79.7336 62.0342C79.1868 62.2152 78.6257 62.3902 78.054 62.5598C76.7884 58.5533 75.0804 54.2929 72.9901 49.8911C74.9848 45.5942 76.6268 41.3883 77.857 37.4077C78.8799 37.7037 79.8728 38.016 80.8295 38.3454C90.0833 41.5311 95.728 46.2411 95.728 49.8703C95.728 53.7361 89.6319 58.7544 79.7336 62.0342ZM75.6265 70.1727C76.6272 75.2276 76.7701 79.7979 76.1072 83.3707C75.5117 86.5811 74.3139 88.7215 72.833 89.5788C69.6815 91.4029 62.9421 89.0318 55.6739 82.7773C54.8407 82.0603 54.0014 81.2947 53.1595 80.4845C55.9772 77.4028 58.7933 73.8202 61.5418 69.8414C66.3761 69.4124 70.9433 68.7111 75.0852 67.7537C75.2892 68.5765 75.4704 69.3836 75.6265 70.1727ZM34.0923 89.2635C31.0132 90.3509 28.561 90.3821 27.0786 89.5273C23.9243 87.708 22.6129 80.6853 24.4017 71.2649C24.6065 70.186 24.8504 69.0778 25.1315 67.945C29.2279 68.8508 33.7617 69.5027 38.6076 69.8955C41.3745 73.7889 44.272 77.3675 47.1919 80.501C46.5539 81.1169 45.9185 81.7032 45.2866 82.2557C41.4068 85.6471 37.5187 88.0533 34.0923 89.2635ZM19.6674 62.0105C14.7913 60.3439 10.7645 58.1779 8.00424 55.8142C5.52401 53.6902 4.27179 51.5814 4.27179 49.8703C4.27179 46.229 9.70057 41.5845 18.7548 38.4277C19.8534 38.0446 21.0035 37.6836 22.197 37.3445C23.4483 41.415 25.0898 45.6708 27.0707 49.9743C25.0642 54.3416 23.3993 58.6652 22.1357 62.7834C21.2849 62.5388 20.4606 62.2814 19.6674 62.0105ZM24.5028 29.0968C22.6235 19.4923 23.8716 12.2471 27.0124 10.429C30.3578 8.49221 37.7556 11.2537 45.5527 18.1769C46.0511 18.6194 46.5515 19.0826 47.0532 19.5618C44.1478 22.6815 41.2768 26.2333 38.5344 30.1037C33.8313 30.5397 29.3294 31.2399 25.1902 32.1776C24.93 31.1308 24.6994 30.1023 24.5028 29.0968ZM67.6382 39.7481C66.6488 38.0389 65.6329 36.3702 64.5973 34.747C67.7879 35.1504 70.8449 35.6858 73.7157 36.341C72.8538 39.1032 71.7796 41.9912 70.5151 44.9519C69.608 43.2297 68.6486 41.4933 67.6382 39.7481ZM50.0477 22.6148C52.0181 24.7495 53.9914 27.1329 55.9323 29.7189C53.9765 29.6265 51.9964 29.5785 50 29.5785C48.0224 29.5785 46.057 29.6255 44.1132 29.7162C46.0561 27.1543 48.0465 24.7741 50.0477 22.6148ZM32.3445 39.7776C31.3561 41.4916 30.4145 43.2185 29.5216 44.9487C28.2776 41.9983 27.2133 39.0971 26.344 36.2958C29.1971 35.6573 32.2397 35.1352 35.41 34.7395C34.3598 36.3777 33.3356 38.0587 32.3445 39.7773V39.7776ZM35.5013 65.3058C32.2258 64.9404 29.1375 64.4452 26.2851 63.8243C27.1683 60.973 28.256 58.0098 29.5264 54.996C30.4216 56.7249 31.3669 58.4525 32.3614 60.1702H32.3616C33.3746 61.9201 34.424 63.6342 35.5013 65.3058ZM50.1659 77.427C48.1412 75.2424 46.1216 72.8259 44.1492 70.2266C46.0639 70.3017 48.016 70.3402 50 70.3402C52.0383 70.3402 54.0532 70.2942 56.0365 70.2059C54.0892 72.8521 52.123 75.2723 50.1659 77.427ZM70.5558 54.8423C71.8924 57.8888 73.0191 60.8365 73.9138 63.6392C71.0143 64.3007 67.8839 64.8334 64.5856 65.2293C65.6237 63.5842 66.6484 61.8868 67.6553 60.1408C68.674 58.3744 69.6413 56.6052 70.5558 54.8423ZM63.9549 58.0066C62.3917 60.717 60.7869 63.3044 59.1577 65.7467C56.1903 65.9589 53.1246 66.0682 50 66.0682C46.8881 66.0682 43.861 65.9715 40.9461 65.7823C39.2512 63.308 37.6115 60.7129 36.0583 58.0299H36.0586C34.5095 55.3543 33.0837 52.656 31.7918 49.9728C33.0834 47.2835 34.5054 44.5821 36.0456 41.9113L36.0453 41.9118C37.5896 39.2338 39.2149 36.6514 40.8941 34.1925C43.8681 33.9677 46.9178 33.8504 49.9998 33.8504H50C53.0959 33.8504 56.1495 33.9686 59.1226 34.1954C60.7762 36.6363 62.3905 39.2103 63.9409 41.8887C65.5088 44.5971 66.9492 47.2804 68.2518 49.9121C66.9531 52.5891 65.516 55.2994 63.9549 58.0066ZM72.7675 10.3019C76.1161 12.233 77.4184 20.0212 75.3144 30.2339C75.1802 30.8855 75.0291 31.5493 74.865 32.2219C70.7162 31.2646 66.211 30.5523 61.4943 30.1098C58.7465 26.1968 55.8991 22.6395 53.0409 19.5598C53.8093 18.8206 54.5767 18.1157 55.3409 17.4505C62.7235 11.0257 69.6236 8.48901 72.7675 10.3019ZM50 40.9407C54.9316 40.9407 58.9297 44.9385 58.9297 49.8703C58.9297 54.8019 54.9316 58.8 50 58.8C45.0684 58.8 41.0703 54.8019 41.0703 49.8703C41.0703 44.9385 45.0684 40.9407 50 40.9407Z" fill="#2F2F3A"/>
</svg>
