<svg width="80" height="80" viewBox="0 0 80 80" fill="none" xmlns="http://www.w3.org/2000/svg">
<path d="M70 20.715C67.795 21.6917 65.4233 22.3433 62.9217 22.6517C65.465 21.1417 67.4217 18.7333 68.34 15.8883C65.96 17.2833 63.3233 18.3083 60.5183 18.8483C58.2783 16.4733 55.0833 15 51.5433 15C44.7433 15 39.2317 20.4633 39.2317 27.2C39.2317 28.1533 39.3433 29.0817 39.5533 29.9833C29.3233 29.47 20.25 24.6067 14.18 17.2267C13.1133 19.03 12.5133 21.1417 12.5133 23.37C12.5133 27.605 14.6817 31.3333 17.9883 33.53C15.97 33.4683 14.07 32.9067 12.4067 32.0067C12.4067 32.0433 12.4067 32.0983 12.4067 32.15C12.4067 38.0683 16.6517 42.9967 22.2783 44.1183C21.25 44.4 20.1633 44.5567 19.0433 44.5567C18.2483 44.5567 17.4733 44.4667 16.7233 44.3317C18.29 49.1683 22.835 52.7033 28.22 52.8083C24.0067 56.075 18.7 58.0317 12.93 58.0317C11.9333 58.0317 10.9583 57.975 9.995 57.8583C15.4467 61.31 21.92 63.3333 28.8683 63.3333C51.51 63.3333 63.8967 44.74 63.8967 28.61C63.8967 28.0817 63.88 27.555 63.855 27.035C66.2717 25.3283 68.355 23.175 70 20.715Z" fill="#2f2f3a"/>
</svg>
