<svg width="83" height="171" viewBox="0 0 83 171" fill="none" xmlns="http://www.w3.org/2000/svg">
<rect y="51" width="70" height="120" rx="15" fill="#FAFAFA"/>
<rect x="20" y="167" width="30" height="2" fill="#2F2F3A"/>
<path d="M20.5 51.1788C19.9487 51.4229 19.3558 51.5858 18.7304 51.6629C19.3662 51.2854 19.8554 50.6833 20.085 49.9721C19.49 50.3208 18.8308 50.5771 18.1296 50.7121C17.5696 50.1183 16.7708 49.75 15.8858 49.75C14.1858 49.75 12.8079 51.1158 12.8079 52.8C12.8079 53.0383 12.8358 53.2704 12.8883 53.4958C10.3308 53.3675 8.0625 52.1517 6.545 50.3067C6.27833 50.7575 6.12833 51.2854 6.12833 51.8425C6.12833 52.9013 6.67042 53.8333 7.49708 54.3825C6.9925 54.3671 6.5175 54.2267 6.10167 54.0017C6.10167 54.0108 6.10167 54.0246 6.10167 54.0375C6.10167 55.5171 7.16292 56.7492 8.56958 57.0296C8.3125 57.1 8.04083 57.1392 7.76083 57.1392C7.56208 57.1392 7.36833 57.1167 7.18083 57.0829C7.5725 58.2921 8.70875 59.1758 10.055 59.2021C9.00166 60.0188 7.675 60.5079 6.2325 60.5079C5.98333 60.5079 5.73958 60.4938 5.49875 60.4646C6.86167 61.3275 8.48 61.8333 10.2171 61.8333C15.8775 61.8333 18.9742 57.185 18.9742 53.1525C18.9742 53.0204 18.97 52.8888 18.9637 52.7588C19.5679 52.3321 20.0887 51.7938 20.5 51.1788Z" fill="#03A9F4"/>
<path d="M40.5 41.1788C39.9487 41.4229 39.3558 41.5858 38.7304 41.6629C39.3662 41.2854 39.8554 40.6833 40.085 39.9721C39.49 40.3208 38.8308 40.5771 38.1296 40.7121C37.5696 40.1183 36.7708 39.75 35.8858 39.75C34.1858 39.75 32.8079 41.1158 32.8079 42.8C32.8079 43.0383 32.8358 43.2704 32.8883 43.4958C30.3308 43.3675 28.0625 42.1517 26.545 40.3067C26.2783 40.7575 26.1283 41.2854 26.1283 41.8425C26.1283 42.9013 26.6704 43.8333 27.4971 44.3825C26.9925 44.3671 26.5175 44.2267 26.1017 44.0017C26.1017 44.0108 26.1017 44.0246 26.1017 44.0375C26.1017 45.5171 27.1629 46.7492 28.5696 47.0296C28.3125 47.1 28.0408 47.1392 27.7608 47.1392C27.5621 47.1392 27.3683 47.1167 27.1808 47.0829C27.5725 48.2921 28.7087 49.1758 30.055 49.2021C29.0017 50.0188 27.675 50.5079 26.2325 50.5079C25.9833 50.5079 25.7396 50.4938 25.4987 50.4646C26.8617 51.3275 28.48 51.8333 30.2171 51.8333C35.8775 51.8333 38.9742 47.185 38.9742 43.1525C38.9742 43.0204 38.97 42.8888 38.9637 42.7588C39.5679 42.3321 40.0887 41.7938 40.5 41.1788Z" fill="#03A9F4"/>
<path d="M60.5 31.1788C59.9487 31.4229 59.3558 31.5858 58.7304 31.6629C59.3662 31.2854 59.8554 30.6833 60.085 29.9721C59.49 30.3208 58.8308 30.5771 58.1296 30.7121C57.5696 30.1183 56.7708 29.75 55.8858 29.75C54.1858 29.75 52.8079 31.1158 52.8079 32.8C52.8079 33.0383 52.8358 33.2704 52.8883 33.4958C50.3308 33.3675 48.0625 32.1517 46.545 30.3067C46.2783 30.7575 46.1283 31.2854 46.1283 31.8425C46.1283 32.9013 46.6704 33.8333 47.4971 34.3825C46.9925 34.3671 46.5175 34.2267 46.1017 34.0017C46.1017 34.0108 46.1017 34.0246 46.1017 34.0375C46.1017 35.5171 47.1629 36.7492 48.5696 37.0296C48.3125 37.1 48.0408 37.1392 47.7608 37.1392C47.5621 37.1392 47.3683 37.1167 47.1808 37.0829C47.5725 38.2921 48.7087 39.1758 50.055 39.2021C49.0017 40.0188 47.675 40.5079 46.2325 40.5079C45.9833 40.5079 45.7396 40.4938 45.4987 40.4646C46.8617 41.3275 48.48 41.8333 50.2171 41.8333C55.8775 41.8333 58.9742 37.185 58.9742 33.1525C58.9742 33.0204 58.97 32.8888 58.9637 32.7588C59.5679 32.3321 60.0887 31.7938 60.5 31.1788Z" fill="#03A9F4"/>
<path d="M70.5 57.1788C69.9487 57.4229 69.3558 57.5858 68.7304 57.6629C69.3662 57.2854 69.8554 56.6833 70.085 55.9721C69.49 56.3208 68.8308 56.5771 68.1296 56.7121C67.5696 56.1183 66.7708 55.75 65.8858 55.75C64.1858 55.75 62.8079 57.1158 62.8079 58.8C62.8079 59.0383 62.8358 59.2704 62.8883 59.4958C60.3308 59.3675 58.0625 58.1517 56.545 56.3067C56.2783 56.7575 56.1283 57.2854 56.1283 57.8425C56.1283 58.9013 56.6704 59.8333 57.4971 60.3825C56.9925 60.3671 56.5175 60.2267 56.1017 60.0017C56.1017 60.0108 56.1017 60.0246 56.1017 60.0375C56.1017 61.5171 57.1629 62.7492 58.5696 63.0296C58.3125 63.1 58.0408 63.1392 57.7608 63.1392C57.5621 63.1392 57.3683 63.1167 57.1808 63.0829C57.5725 64.2921 58.7087 65.1758 60.055 65.2021C59.0017 66.0188 57.675 66.5079 56.2325 66.5079C55.9833 66.5079 55.7396 66.4938 55.4987 66.4646C56.8617 67.3275 58.48 67.8333 60.2171 67.8333C65.8775 67.8333 68.9742 63.185 68.9742 59.1525C68.9742 59.0204 68.97 58.8888 68.9637 58.7588C69.5679 58.3321 70.0887 57.7938 70.5 57.1788Z" fill="#03A9F4"/>
<path d="M80.5 83.1788C79.9487 83.4229 79.3558 83.5858 78.7304 83.6629C79.3662 83.2854 79.8554 82.6833 80.085 81.9721C79.49 82.3208 78.8308 82.5771 78.1296 82.7121C77.5696 82.1183 76.7708 81.75 75.8858 81.75C74.1858 81.75 72.8079 83.1158 72.8079 84.8C72.8079 85.0383 72.8358 85.2704 72.8883 85.4958C70.3308 85.3675 68.0625 84.1517 66.545 82.3067C66.2783 82.7575 66.1283 83.2854 66.1283 83.8425C66.1283 84.9013 66.6704 85.8333 67.4971 86.3825C66.9925 86.3671 66.5175 86.2267 66.1017 86.0017C66.1017 86.0108 66.1017 86.0246 66.1017 86.0375C66.1017 87.5171 67.1629 88.7492 68.5696 89.0296C68.3125 89.1 68.0408 89.1392 67.7608 89.1392C67.5621 89.1392 67.3683 89.1167 67.1808 89.0829C67.5725 90.2921 68.7087 91.1758 70.055 91.2021C69.0017 92.0188 67.675 92.5079 66.2325 92.5079C65.9833 92.5079 65.7396 92.4938 65.4987 92.4646C66.8617 93.3275 68.48 93.8333 70.2171 93.8333C75.8775 93.8333 78.9742 89.185 78.9742 85.1525C78.9742 85.0204 78.97 84.8888 78.9637 84.7588C79.5679 84.3321 80.0887 83.7938 80.5 83.1788Z" fill="#03A9F4"/>
<path d="M40.5 15.1788C39.9487 15.4229 39.3558 15.5858 38.7304 15.6629C39.3662 15.2854 39.8554 14.6833 40.085 13.9721C39.49 14.3208 38.8308 14.5771 38.1296 14.7121C37.5696 14.1183 36.7708 13.75 35.8858 13.75C34.1858 13.75 32.8079 15.1158 32.8079 16.8C32.8079 17.0383 32.8358 17.2704 32.8883 17.4958C30.3308 17.3675 28.0625 16.1517 26.545 14.3067C26.2783 14.7575 26.1283 15.2854 26.1283 15.8425C26.1283 16.9013 26.6704 17.8333 27.4971 18.3825C26.9925 18.3671 26.5175 18.2267 26.1017 18.0017C26.1017 18.0108 26.1017 18.0246 26.1017 18.0375C26.1017 19.5171 27.1629 20.7492 28.5696 21.0296C28.3125 21.1 28.0408 21.1392 27.7608 21.1392C27.5621 21.1392 27.3683 21.1167 27.1808 21.0829C27.5725 22.2921 28.7087 23.1758 30.055 23.2021C29.0017 24.0188 27.675 24.5079 26.2325 24.5079C25.9833 24.5079 25.7396 24.4938 25.4987 24.4646C26.8617 25.3275 28.48 25.8333 30.2171 25.8333C35.8775 25.8333 38.9742 21.185 38.9742 17.1525C38.9742 17.0204 38.97 16.8888 38.9637 16.7588C39.5679 16.3321 40.0887 15.7938 40.5 15.1788Z" fill="#03A9F4"/>
<path d="M78.5 27.1788C77.9487 27.4229 77.3558 27.5858 76.7304 27.6629C77.3662 27.2854 77.8554 26.6833 78.085 25.9721C77.49 26.3208 76.8308 26.5771 76.1296 26.7121C75.5696 26.1183 74.7708 25.75 73.8858 25.75C72.1858 25.75 70.8079 27.1158 70.8079 28.8C70.8079 29.0383 70.8358 29.2704 70.8883 29.4958C68.3308 29.3675 66.0625 28.1517 64.545 26.3067C64.2783 26.7575 64.1283 27.2854 64.1283 27.8425C64.1283 28.9013 64.6704 29.8333 65.4971 30.3825C64.9925 30.3671 64.5175 30.2267 64.1017 30.0017C64.1017 30.0108 64.1017 30.0246 64.1017 30.0375C64.1017 31.5171 65.1629 32.7492 66.5696 33.0296C66.3125 33.1 66.0408 33.1392 65.7608 33.1392C65.5621 33.1392 65.3683 33.1167 65.1808 33.0829C65.5725 34.2921 66.7087 35.1758 68.055 35.2021C67.0017 36.0188 65.675 36.5079 64.2325 36.5079C63.9833 36.5079 63.7396 36.4938 63.4987 36.4646C64.8617 37.3275 66.48 37.8333 68.2171 37.8333C73.8775 37.8333 76.9742 33.185 76.9742 29.1525C76.9742 29.0204 76.97 28.8888 76.9637 28.7588C77.5679 28.3321 78.0887 27.7938 78.5 27.1788Z" fill="#03A9F4"/>
<path d="M70.5 5.17875C69.9487 5.42292 69.3558 5.58583 68.7304 5.66292C69.3662 5.28542 69.8554 4.68333 70.085 3.97208C69.49 4.32083 68.8308 4.57708 68.1296 4.71208C67.5696 4.11833 66.7708 3.75 65.8858 3.75C64.1858 3.75 62.8079 5.11583 62.8079 6.8C62.8079 7.03833 62.8358 7.27042 62.8883 7.49583C60.3308 7.3675 58.0625 6.15167 56.545 4.30667C56.2783 4.7575 56.1283 5.28542 56.1283 5.8425C56.1283 6.90125 56.6704 7.83333 57.4971 8.3825C56.9925 8.36708 56.5175 8.22667 56.1017 8.00167C56.1017 8.01083 56.1017 8.02458 56.1017 8.0375C56.1017 9.51708 57.1629 10.7492 58.5696 11.0296C58.3125 11.1 58.0408 11.1392 57.7608 11.1392C57.5621 11.1392 57.3683 11.1167 57.1808 11.0829C57.5725 12.2921 58.7087 13.1758 60.055 13.2021C59.0017 14.0188 57.675 14.5079 56.2325 14.5079C55.9833 14.5079 55.7396 14.4938 55.4987 14.4646C56.8617 15.3275 58.48 15.8333 60.2171 15.8333C65.8775 15.8333 68.9742 11.185 68.9742 7.1525C68.9742 7.02042 68.97 6.88875 68.9637 6.75875C69.5679 6.33208 70.0887 5.79375 70.5 5.17875Z" fill="#03A9F4"/>
<path d="M70.5 5.17875C69.9487 5.42292 69.3558 5.58583 68.7304 5.66292C69.3662 5.28542 69.8554 4.68333 70.085 3.97208C69.49 4.32083 68.8308 4.57708 68.1296 4.71208C67.5696 4.11833 66.7708 3.75 65.8858 3.75C64.1858 3.75 62.8079 5.11583 62.8079 6.8C62.8079 7.03833 62.8358 7.27042 62.8883 7.49583C60.3308 7.3675 58.0625 6.15167 56.545 4.30667C56.2783 4.7575 56.1283 5.28542 56.1283 5.8425C56.1283 6.90125 56.6704 7.83333 57.4971 8.3825C56.9925 8.36708 56.5175 8.22667 56.1017 8.00167C56.1017 8.01083 56.1017 8.02458 56.1017 8.0375C56.1017 9.51708 57.1629 10.7492 58.5696 11.0296C58.3125 11.1 58.0408 11.1392 57.7608 11.1392C57.5621 11.1392 57.3683 11.1167 57.1808 11.0829C57.5725 12.2921 58.7087 13.1758 60.055 13.2021C59.0017 14.0188 57.675 14.5079 56.2325 14.5079C55.9833 14.5079 55.7396 14.4938 55.4987 14.4646C56.8617 15.3275 58.48 15.8333 60.2171 15.8333C65.8775 15.8333 68.9742 11.185 68.9742 7.1525C68.9742 7.02042 68.97 6.88875 68.9637 6.75875C69.5679 6.33208 70.0887 5.79375 70.5 5.17875Z" fill="#03A9F4"/>
<path d="M42.5 70.1788C41.9487 70.4229 41.3558 70.5858 40.7304 70.6629C41.3662 70.2854 41.8554 69.6833 42.085 68.9721C41.49 69.3208 40.8308 69.5771 40.1296 69.7121C39.5696 69.1183 38.7708 68.75 37.8858 68.75C36.1858 68.75 34.8079 70.1158 34.8079 71.8C34.8079 72.0383 34.8358 72.2704 34.8883 72.4958C32.3308 72.3675 30.0625 71.1517 28.545 69.3067C28.2783 69.7575 28.1283 70.2854 28.1283 70.8425C28.1283 71.9013 28.6704 72.8333 29.4971 73.3825C28.9925 73.3671 28.5175 73.2267 28.1017 73.0017C28.1017 73.0108 28.1017 73.0246 28.1017 73.0375C28.1017 74.5171 29.1629 75.7492 30.5696 76.0296C30.3125 76.1 30.0408 76.1392 29.7608 76.1392C29.5621 76.1392 29.3683 76.1167 29.1808 76.0829C29.5725 77.2921 30.7087 78.1758 32.055 78.2021C31.0017 79.0188 29.675 79.5079 28.2325 79.5079C27.9833 79.5079 27.7396 79.4938 27.4987 79.4646C28.8617 80.3275 30.48 80.8333 32.2171 80.8333C37.8775 80.8333 40.9742 76.185 40.9742 72.1525C40.9742 72.0204 40.97 71.8888 40.9637 71.7588C41.5679 71.3321 42.0887 70.7938 42.5 70.1788Z" fill="#03A9F4"/>
</svg>
