<svg width="83" height="171" viewBox="0 0 83 171" fill="none" xmlns="http://www.w3.org/2000/svg">
<path d="M55 51H15C6.71573 51 0 57.7157 0 66V156C0 164.284 6.71573 171 15 171H55C63.2843 171 70 164.284 70 156V66C70 57.7157 63.2843 51 55 51Z" fill="#FAFAFA"/>
<path d="M50 167H20V169H50V167Z" fill="#2F2F3A"/>
<path d="M44.3464 70.125H49.0621L38.7594 83.1528L50.8801 100.88H41.3894L33.9565 90.1283L25.4512 100.88H20.7322L31.7521 86.9457L20.125 70.125H29.8561L36.5751 79.9523L44.3464 70.125ZM42.6912 97.7572H45.3044L28.4363 73.084H25.6323L42.6912 97.7572Z" fill="#2F2F3A"/>
</svg>
